<?xml version="1.0" encoding="utf-8"?>
<!-- Generator: Adobe Illustrator 23.0.0, SVG Export Plug-In . SVG Version: 6.00 Build 0)  -->
<svg version="1.1" id="Capa_1" xmlns="http://www.w3.org/2000/svg" xmlns:xlink="http://www.w3.org/1999/xlink" x="0px" y="0px"
	 viewBox="0 0 528.2 457" style="enable-background:new 0 0 528.2 457;" xml:space="preserve">
<style type="text/css">
	.st0{opacity:0.1;}
	.st1{fill:#DEDEDE;}
</style>
<g class="st0">
	<g>
		<path class="st1" d="M526.4,103.5V118l-32.3,32.3h-14.5L526.4,103.5 M527.4,101.1l-50.1,50.1h17.3l32.8-32.8V101.1L527.4,101.1z"
			/>
	</g>
	<g>
		<path class="st1" d="M530,123.1l29,29l-30.8,30.8l-30.8-30.8l29-29v29.1v1h1h1.6h1v-1V123.1 M529,120.7v31.5h-1.6v-31.5L496,152.1
			l32.2,32.2l32.2-32.2L529,120.7L529,120.7z"/>
	</g>
	<g>
		<path class="st1" d="M528.2,98.1l-54,54l54,54l54-54L528.2,98.1L528.2,98.1z M561.9,151.3L529,118.4v-17.3l50.1,50.1L561.9,151.3
			L561.9,151.3z M477.3,151.3l50.1-50.1v17.3l-32.8,32.8H477.3L477.3,151.3z M527.4,152.2h1.6v-31.5l31.4,31.4l-32.2,32.2L496,152.1
			l31.4-31.4V152.2L527.4,152.2z M579.2,152.9L529,203v-17.3l32.8-32.8H579.2L579.2,152.9z M527.4,203l-50.1-50.1h17.3l32.8,32.8
			V203L527.4,203z"/>
	</g>
</g>
<g class="st0">
	<g>
		<path class="st1" d="M424.4,123.1l29,29l-30.8,30.8l-30.8-30.8l29-29v29.1v1h1h1.6h1v-1L424.4,123.1 M423.4,120.7v31.5h-1.6v-31.5
			l-31.4,31.4l32.2,32.2l32.2-32.2L423.4,120.7L423.4,120.7z"/>
	</g>
	<g>
		<path class="st1" d="M424.4,103.5l46.7,46.7h-14.5L424.4,118V103.5 M423.4,101.1v17.3l32.8,32.8h17.3L423.4,101.1L423.4,101.1z"/>
	</g>
	<g>
		<path class="st1" d="M422.6,98.1l-54,54l54,54l54-54L422.6,98.1L422.6,98.1z M456.2,151.3l-32.8-32.8v-17.3l50.1,50.1L456.2,151.3
			L456.2,151.3z M371.6,151.3l50.1-50.1v17.3l-32.8,32.8H371.6L371.6,151.3z M421.8,152.2h1.6v-31.5l31.4,31.4l-32.2,32.2
			l-32.2-32.2l31.4-31.4L421.8,152.2L421.8,152.2z M473.5,152.9L423.4,203v-17.3l32.8-32.8H473.5L473.5,152.9z M421.8,203
			l-50.1-50.1H389l32.8,32.8L421.8,203L421.8,203z"/>
	</g>
</g>
<g class="st0">
	<g>
		<path class="st1" d="M581.1,22l-54,54l54,54l54-54L581.1,22L581.1,22z M614.7,75.2l-32.8-32.8V25.1L632,75.2H614.7L614.7,75.2z
			 M530.1,75.2l50.1-50.1v17.3l-32.8,32.8H530.1L530.1,75.2z M580.3,76.2h1.6V44.7L613.2,76L581,108.2L548.9,76l31.4-31.4
			L580.3,76.2L580.3,76.2z M632,76.8L581.9,127v-17.3l32.8-32.8L632,76.8L632,76.8z M580.3,127l-50.1-50.1h17.3l32.8,32.8V127
			L580.3,127z"/>
	</g>
</g>
<g class="st0">
	<g>
		<path class="st1" d="M473.6,27.5V42l-32.3,32.3h-14.5L473.6,27.5 M474.6,25.1l-50.1,50.1h17.3l32.8-32.8L474.6,25.1L474.6,25.1z"
			/>
	</g>
	<g>
		<path class="st1" d="M441.4,77.8l32.3,32.3v14.5L427,77.9h14.4 M441.8,76.8h-17.3l50.1,50.1v-17.3L441.8,76.8L441.8,76.8z"/>
	</g>
	<g>
		<path class="st1" d="M477.2,47.1l29,29l-30.8,30.8L444.6,76l29-29v29.1v1h1h1.6h1v-1V47.1 M476.2,44.7v31.5h-1.6V44.7L443.2,76
			l32.2,32.2L507.6,76L476.2,44.7L476.2,44.7z"/>
	</g>
	<g>
		<path class="st1" d="M477.2,27.5l46.7,46.7h-14.5L477.2,42V27.5 M476.2,25.1v17.3L509,75.2h17.3L476.2,25.1L476.2,25.1z"/>
	</g>
	<g>
		<path class="st1" d="M523.9,77.8l-46.7,46.7V110l32.3-32.3h14.4 M526.4,76.8h-17.3l-32.8,32.8V127L526.4,76.8L526.4,76.8z"/>
	</g>
	<g>
		<path class="st1" d="M475.4,22l-54,54l54,54l54-54L475.4,22L475.4,22z M509.1,75.2l-32.8-32.8V25.1l50.1,50.1H509.1L509.1,75.2z
			 M424.5,75.2l50.1-50.1v17.3l-32.8,32.8H424.5L424.5,75.2z M474.6,76.2h1.6V44.7L507.6,76l-32.2,32.2L443.2,76l31.4-31.4V76.2
			L474.6,76.2z M526.4,76.8L476.2,127v-17.3L509,76.9L526.4,76.8L526.4,76.8z M474.6,127l-50.1-50.1h17.3l32.8,32.8L474.6,127
			L474.6,127z"/>
	</g>
</g>
<g class="st0">
	<g>
		<path class="st1" d="M369.8,22l-54,54l54,54l54-54L369.8,22L369.8,22z M403.4,75.2l-32.8-32.8V25.1l50.1,50.1H403.4L403.4,75.2z
			 M318.8,75.2L369,25.1v17.3l-32.8,32.8H318.8L318.8,75.2z M369,76.2h1.6V44.7L401.9,76l-32.2,32.2L337.6,76L369,44.7V76.2
			L369,76.2z M420.7,76.8L370.6,127v-17.3l32.8-32.8L420.7,76.8L420.7,76.8z M369,127l-50.1-50.1h17.3l32.8,32.8L369,127L369,127z"
			/>
	</g>
</g>
<g class="st0">
	<g>
		<path class="st1" d="M494.2,1.8l32.3,32.3v14.5L479.7,1.8H494.2 M494.6,0.8h-17.3l50.1,50.1V33.6L494.6,0.8L494.6,0.8z"/>
	</g>
	<g>
		<path class="st1" d="M530-29l29,29l-30.8,30.8L497.5,0l29-29V0.1v1h1h1.6h1v-1L530-29 M529-31.4V0.1h-1.6v-31.5L496.1,0l32.2,32.2
			L560.4,0L529-31.4L529-31.4z"/>
	</g>
	<g>
		<path class="st1" d="M528.2-54l-54,54l54,54l54-54L528.2-54L528.2-54z M561.9-0.8L529-33.6v-17.3l50.1,50.1L561.9-0.8L561.9-0.8z
			 M477.3-0.8l50.1-50.1v17.3L494.6-0.8H477.3L477.3-0.8z M527.4,0.1h1.6v-31.5L560.4,0l-32.2,32.2L496.1,0l31.4-31.4L527.4,0.1
			L527.4,0.1z M579.2,0.8L529,50.9V33.6l32.8-32.8L579.2,0.8L579.2,0.8z M527.4,50.9L477.3,0.8h17.3l32.8,32.8L527.4,50.9
			L527.4,50.9z"/>
	</g>
</g>
<g class="st0">
	<g>
		<path class="st1" d="M424.4-29l29,29l-30.8,30.8L391.8,0l29-29V0.1v1h1h1.6h1v-1V-29 M423.4-31.4V0.1h-1.6v-31.5L390.4,0
			l32.2,32.2L454.8,0L423.4-31.4L423.4-31.4z"/>
	</g>
	<g>
		<path class="st1" d="M471.1,1.8l-46.7,46.7V34.1l32.3-32.3L471.1,1.8 M473.5,0.8h-17.3l-32.8,32.8v17.3L473.5,0.8L473.5,0.8z"/>
	</g>
	<g>
		<path class="st1" d="M422.6-54l-54,54l54,54l54-54L422.6-54L422.6-54z M456.2-0.8l-32.8-32.8v-17.3l50.1,50.1L456.2-0.8L456.2-0.8
			z M371.6-0.8l50.1-50.1v17.3L388.9-0.8H371.6L371.6-0.8z M421.8,0.1h1.6v-31.5L454.8,0l-32.2,32.2L390.4,0l31.4-31.4V0.1
			L421.8,0.1z M473.5,0.8l-50.1,50.1V33.6l32.8-32.8L473.5,0.8L473.5,0.8z M421.8,50.9L371.6,0.8h17.3l32.8,32.8v17.3H421.8z"/>
	</g>
</g>
<g class="st0">
	<g>
		<path class="st1" d="M526.4,255.6v14.5l-32.3,32.3h-14.5L526.4,255.6 M527.4,253.2l-50.1,50.1h17.3l32.8-32.8V253.2L527.4,253.2z"
			/>
	</g>
	<g>
		<path class="st1" d="M530,275.2l29,29L528.2,335l-30.8-30.8l29-29v29.1v1h1h1.6h1v-1V275.2 M529,272.8v31.5h-1.6v-31.5L496,304.2
			l32.2,32.2l32.2-32.2L529,272.8L529,272.8z"/>
	</g>
	<g>
		<path class="st1" d="M528.2,250.1l-54,54l54,54l54-54L528.2,250.1L528.2,250.1z M561.9,303.3L529,270.5v-17.3l50.1,50.1H561.9
			L561.9,303.3z M477.3,303.3l50.1-50.1v17.3l-32.8,32.8L477.3,303.3L477.3,303.3z M527.4,304.3h1.6v-31.5l31.4,31.4l-32.2,32.2
			L496,304.2l31.4-31.4V304.3L527.4,304.3z M579.2,304.9L529,355.1v-17.3l32.8-32.8h17.4V304.9z M527.4,355.1L477.3,305h17.3
			l32.8,32.8V355.1L527.4,355.1z"/>
	</g>
</g>
<g class="st0">
	<g>
		<path class="st1" d="M424.4,275.2l29,29L422.6,335l-30.8-30.8l29-29v29.1v1h1h1.6h1v-1L424.4,275.2 M423.4,272.8v31.5h-1.6v-31.5
			l-31.4,31.4l32.2,32.2l32.2-32.2L423.4,272.8L423.4,272.8z"/>
	</g>
	<g>
		<path class="st1" d="M424.4,255.6l46.7,46.7h-14.5L424.3,270L424.4,255.6 M423.4,253.2v17.3l32.8,32.8h17.3L423.4,253.2
			L423.4,253.2z"/>
	</g>
	<g>
		<path class="st1" d="M422.6,250.1l-54,54l54,54l54-54L422.6,250.1L422.6,250.1z M456.2,303.3l-32.8-32.8v-17.3l50.1,50.1H456.2
			L456.2,303.3z M371.6,303.3l50.1-50.1v17.3l-32.8,32.8L371.6,303.3L371.6,303.3z M421.8,304.3h1.6v-31.5l31.4,31.4l-32.2,32.2
			l-32.2-32.2l31.4-31.4L421.8,304.3L421.8,304.3z M473.5,304.9L423.4,355v-17.3l32.8-32.8L473.5,304.9L473.5,304.9z M421.8,355.1
			L371.7,305H389l32.8,32.8L421.8,355.1L421.8,355.1z"/>
	</g>
</g>
<g class="st0">
	<g>
		<path class="st1" d="M581.1,174.1l-54,54l54,54l54-54L581.1,174.1L581.1,174.1z M614.7,227.3l-32.8-32.8v-17.3l50.1,50.1
			L614.7,227.3L614.7,227.3z M530.1,227.3l50.1-50.1v17.3l-32.8,32.8L530.1,227.3L530.1,227.3z M580.3,228.2h1.6v-31.5l31.4,31.4
			l-32.2,32.2l-32.2-32.2l31.4-31.4V228.2L580.3,228.2z M632,228.9L581.9,279v-17.3l32.8-32.8L632,228.9L632,228.9z M580.3,279
			l-50.1-50.1h17.3l32.8,32.8V279L580.3,279z"/>
	</g>
</g>
<g class="st0">
	<g>
		<path class="st1" d="M473.6,179.6V194l-32.3,32.3h-14.5L473.6,179.6 M474.6,177.2l-50.1,50.1h17.3l32.8-32.8L474.6,177.2
			L474.6,177.2z"/>
	</g>
	<g>
		<path class="st1" d="M441.4,229.9l32.3,32.3v14.5L427,230L441.4,229.9 M441.8,228.9h-17.3l50.1,50.1v-17.3L441.8,228.9
			L441.8,228.9z"/>
	</g>
	<g>
		<path class="st1" d="M477.2,199.1l29,29l-30.8,30.8l-30.8-30.8l29-29v29.1v1h1h1.6h1v-1L477.2,199.1 M476.2,196.7v31.5h-1.6v-31.5
			l-31.4,31.4l32.2,32.2l32.2-32.2L476.2,196.7L476.2,196.7z"/>
	</g>
	<g>
		<path class="st1" d="M477.2,179.6l46.7,46.7h-14.5L477.2,194V179.6 M476.2,177.2v17.3l32.8,32.8h17.3L476.2,177.2L476.2,177.2z"/>
	</g>
	<g>
		<path class="st1" d="M523.9,229.9l-46.7,46.7v-14.5l32.3-32.3L523.9,229.9 M526.4,228.9h-17.3l-32.8,32.8V279L526.4,228.9
			L526.4,228.9z"/>
	</g>
	<g>
		<path class="st1" d="M475.4,174.1l-54,54l54,54l54-54L475.4,174.1L475.4,174.1z M509.1,227.3l-32.8-32.8v-17.3l50.1,50.1
			L509.1,227.3L509.1,227.3z M424.5,227.3l50.1-50.1v17.3l-32.8,32.8L424.5,227.3L424.5,227.3z M474.6,228.2h1.6v-31.5l31.4,31.4
			l-32.2,32.2l-32.2-32.2l31.4-31.4L474.6,228.2L474.6,228.2z M526.4,228.9L476.2,279v-17.3l32.8-32.8L526.4,228.9L526.4,228.9z
			 M474.6,279l-50.1-50.1h17.3l32.8,32.8L474.6,279L474.6,279z"/>
	</g>
</g>
<g class="st0">
	<g>
		<path class="st1" d="M369.8,174.1l-54,54l54,54l54-54L369.8,174.1L369.8,174.1z M403.4,227.3l-32.8-32.8v-17.3l50.1,50.1
			L403.4,227.3L403.4,227.3z M318.8,227.3l50.1-50.1v17.3l-32.8,32.8L318.8,227.3L318.8,227.3z M369,228.2h1.6v-31.5l31.4,31.4
			l-32.2,32.2l-32.2-32.2l31.4-31.4L369,228.2L369,228.2z M420.7,228.9L370.6,279v-17.3l32.8-32.8L420.7,228.9L420.7,228.9z
			 M369,279l-50.1-50.1h17.3l32.8,32.8L369,279L369,279z"/>
	</g>
</g>
<g class="st0">
	<g>
		<path class="st1" d="M494.2,153.9l32.3,32.3v14.5L479.8,154h14.4 M494.6,152.9h-17.3l50.1,50.1v-17.3L494.6,152.9L494.6,152.9z"/>
	</g>
	<g>
		<path class="st1" d="M530,123.1l29,29l-30.8,30.8l-30.8-30.8l29-29v29.1v1h1h1.6h1v-1V123.1 M529,120.7v31.5h-1.6v-31.5L496,152.1
			l32.2,32.2l32.2-32.2L529,120.7L529,120.7z"/>
	</g>
	<g>
		<path class="st1" d="M528.2,98.1l-54,54l54,54l54-54L528.2,98.1L528.2,98.1z M561.9,151.3L529,118.4v-17.3l50.1,50.1L561.9,151.3
			L561.9,151.3z M477.3,151.3l50.1-50.1v17.3l-32.8,32.8H477.3L477.3,151.3z M527.4,152.2h1.6v-31.5l31.4,31.4l-32.2,32.2L496,152.1
			l31.4-31.4V152.2L527.4,152.2z M579.2,152.9L529,203v-17.3l32.8-32.8H579.2L579.2,152.9z M527.4,203l-50.1-50.1h17.3l32.8,32.8
			V203L527.4,203z"/>
	</g>
</g>
<g class="st0">
	<g>
		<path class="st1" d="M424.4,123.1l29,29l-30.8,30.8l-30.8-30.8l29-29v29.1v1h1h1.6h1v-1L424.4,123.1 M423.4,120.7v31.5h-1.6v-31.5
			l-31.4,31.4l32.2,32.2l32.2-32.2L423.4,120.7L423.4,120.7z"/>
	</g>
	<g>
		<path class="st1" d="M471.1,153.9l-46.7,46.7v-14.5l32.3-32.3h14.4 M473.5,152.9h-17.3l-32.8,32.8V203L473.5,152.9L473.5,152.9z"
			/>
	</g>
	<g>
		<path class="st1" d="M422.6,98.1l-54,54l54,54l54-54L422.6,98.1L422.6,98.1z M456.2,151.3l-32.8-32.8v-17.3l50.1,50.1L456.2,151.3
			L456.2,151.3z M371.6,151.3l50.1-50.1v17.3l-32.8,32.8H371.6L371.6,151.3z M421.8,152.2h1.6v-31.5l31.4,31.4l-32.2,32.2
			l-32.2-32.2l31.4-31.4L421.8,152.2L421.8,152.2z M473.5,152.9L423.4,203v-17.3l32.8-32.8H473.5L473.5,152.9z M421.8,203
			l-50.1-50.1H389l32.8,32.8L421.8,203L421.8,203z"/>
	</g>
</g>
<g class="st0">
	<g>
		<path class="st1" d="M526.4,407.7v14.5l-32.3,32.3h-14.5L526.4,407.7 M527.4,405.3l-50.1,50.1h17.3l32.8-32.8V405.3L527.4,405.3z"
			/>
	</g>
	<g>
		<path class="st1" d="M530,427.2l29,29L528.2,487l-30.8-30.8l29-29v29.1v1h1h1.6h1v-1V427.2 M529,424.8v31.5h-1.6v-31.5L496,456.2
			l32.2,32.2l32.2-32.2L529,424.8L529,424.8z"/>
	</g>
	<g>
		<path class="st1" d="M528.2,402.2l-54,54l54,54l54-54L528.2,402.2L528.2,402.2z M561.9,455.4L529,422.6v-17.3l50.1,50.1
			L561.9,455.4L561.9,455.4z M477.3,455.4l50.1-50.1v17.3l-32.8,32.8L477.3,455.4L477.3,455.4z M527.4,456.3h1.6v-31.5l31.4,31.4
			l-32.2,32.2L496,456.2l31.4-31.4V456.3L527.4,456.3z M579.2,457L529,507.2v-17.3l32.8-32.8h17.4V457z M527.4,507.2L477.3,457h17.3
			l32.8,32.8L527.4,507.2L527.4,507.2z"/>
	</g>
</g>
<g class="st0">
	<g>
		<path class="st1" d="M424.4,427.2l29,29L422.6,487l-30.8-30.8l29-29v29.1v1h1h1.6h1v-1L424.4,427.2 M423.4,424.8v31.5h-1.6v-31.5
			l-31.4,31.4l32.2,32.2l32.2-32.2L423.4,424.8L423.4,424.8z"/>
	</g>
	<g>
		<path class="st1" d="M424.4,407.7l46.7,46.7h-14.5l-32.3-32.3L424.4,407.7 M423.4,405.3v17.3l32.8,32.8h17.3L423.4,405.3
			L423.4,405.3z"/>
	</g>
	<g>
		<path class="st1" d="M422.6,402.2l-54,54l54,54l54-54L422.6,402.2L422.6,402.2z M456.2,455.4l-32.8-32.8v-17.3l50.1,50.1
			L456.2,455.4L456.2,455.4z M371.6,455.4l50.1-50.1v17.3l-32.8,32.8L371.6,455.4L371.6,455.4z M421.8,456.3h1.6v-31.5l31.4,31.4
			l-32.2,32.2l-32.2-32.2l31.4-31.4L421.8,456.3L421.8,456.3z M473.5,457l-50.1,50.1v-17.3l32.8-32.8L473.5,457L473.5,457z
			 M421.8,507.2L371.6,457h17.3l32.8,32.8v17.4H421.8z"/>
	</g>
</g>
<g class="st0">
	<g>
		<path class="st1" d="M581.1,326.2l-54,54l54,54l54-54L581.1,326.2L581.1,326.2z M614.7,379.4l-32.8-32.8v-17.3l50.1,50.1
			L614.7,379.4L614.7,379.4z M530.1,379.4l50.1-50.1v17.3l-32.8,32.8L530.1,379.4L530.1,379.4z M580.3,380.3h1.6v-31.5l31.4,31.4
			l-32.2,32.2l-32.2-32.2l31.4-31.4V380.3L580.3,380.3z M632,381l-50.1,50.1v-17.3l32.8-32.8L632,381L632,381z M580.3,431.1
			L530.1,381h17.3l32.8,32.8v17.3H580.3z"/>
	</g>
</g>
<g class="st0">
	<g>
		<path class="st1" d="M473.6,331.6v14.5l-32.3,32.3h-14.5L473.6,331.6 M474.6,329.2l-50.1,50.1h17.3l32.8-32.8L474.6,329.2
			L474.6,329.2z"/>
	</g>
	<g>
		<path class="st1" d="M441.4,382l32.3,32.3v14.5L426.9,382H441.4 M441.8,381h-17.3l50.1,50.1v-17.3L441.8,381L441.8,381z"/>
	</g>
	<g>
		<path class="st1" d="M477.2,351.2l29,29L475.4,411l-30.8-30.8l29-29v29.1v1h1h1.6h1v-1L477.2,351.2 M476.2,348.8v31.5h-1.6v-31.5
			l-31.4,31.4l32.2,32.2l32.2-32.2L476.2,348.8L476.2,348.8z"/>
	</g>
	<g>
		<path class="st1" d="M477.2,331.6l46.7,46.7h-14.5L477.1,346L477.2,331.6 M476.2,329.2v17.3l32.8,32.8h17.3L476.2,329.2
			L476.2,329.2z"/>
	</g>
	<g>
		<path class="st1" d="M523.9,382l-46.7,46.7v-14.5l32.3-32.3L523.9,382 M526.4,381h-17.3l-32.8,32.8v17.3L526.4,381L526.4,381z"/>
	</g>
	<g>
		<path class="st1" d="M475.4,326.2l-54,54l54,54l54-54L475.4,326.2L475.4,326.2z M509.1,379.4l-32.8-32.8v-17.3l50.1,50.1
			L509.1,379.4L509.1,379.4z M424.5,379.4l50.1-50.1v17.3l-32.8,32.8L424.5,379.4L424.5,379.4z M474.6,380.3h1.6v-31.5l31.4,31.4
			l-32.2,32.2l-32.2-32.2l31.4-31.4L474.6,380.3L474.6,380.3z M526.4,381l-50.1,50.1v-17.3l32.8-32.8L526.4,381L526.4,381z
			 M474.6,431.1L424.5,381h17.3l32.8,32.8L474.6,431.1L474.6,431.1z"/>
	</g>
</g>
<g class="st0">
	<g>
		<path class="st1" d="M369.8,326.2l-54,54l54,54l54-54L369.8,326.2L369.8,326.2z M403.4,379.4l-32.8-32.8v-17.3l50.1,50.1
			L403.4,379.4L403.4,379.4z M318.8,379.4l50.1-50.1v17.3l-32.8,32.8L318.8,379.4L318.8,379.4z M369,380.3h1.6v-31.5l31.4,31.4
			l-32.2,32.2l-32.2-32.2l31.4-31.4L369,380.3L369,380.3z M420.7,381l-50.1,50.1v-17.3l32.8-32.8L420.7,381L420.7,381z M369,431.1
			L318.8,381h17.3l32.8,32.8v17.3H369z"/>
	</g>
</g>
<g class="st0">
	<g>
		<path class="st1" d="M494.2,305.9l32.3,32.3v14.5L479.8,306L494.2,305.9 M494.6,304.9h-17.3l50.1,50.1v-17.3L494.6,304.9
			L494.6,304.9z"/>
	</g>
	<g>
		<path class="st1" d="M530,275.2l29,29L528.2,335l-30.8-30.8l29-29v29.1v1h1h1.6h1v-1V275.2 M529,272.8v31.5h-1.6v-31.5L496,304.2
			l32.2,32.2l32.2-32.2L529,272.8L529,272.8z"/>
	</g>
	<g>
		<path class="st1" d="M528.2,250.1l-54,54l54,54l54-54L528.2,250.1L528.2,250.1z M561.9,303.3L529,270.5v-17.3l50.1,50.1H561.9
			L561.9,303.3z M477.3,303.3l50.1-50.1v17.3l-32.8,32.8L477.3,303.3L477.3,303.3z M527.4,304.3h1.6v-31.5l31.4,31.4l-32.2,32.2
			L496,304.2l31.4-31.4V304.3L527.4,304.3z M579.2,304.9L529,355.1v-17.3l32.8-32.8h17.4V304.9z M527.4,355.1L477.3,305h17.3
			l32.8,32.8V355.1L527.4,355.1z"/>
	</g>
</g>
<g class="st0">
	<g>
		<path class="st1" d="M424.4,275.2l29,29L422.6,335l-30.8-30.8l29-29v29.1v1h1h1.6h1v-1L424.4,275.2 M423.4,272.8v31.5h-1.6v-31.5
			l-31.4,31.4l32.2,32.2l32.2-32.2L423.4,272.8L423.4,272.8z"/>
	</g>
	<g>
		<path class="st1" d="M471.1,305.9l-46.7,46.7v-14.5l32.3-32.3L471.1,305.9 M473.5,304.9h-17.3l-32.8,32.8V355L473.5,304.9
			L473.5,304.9z"/>
	</g>
	<g>
		<path class="st1" d="M422.6,250.1l-54,54l54,54l54-54L422.6,250.1L422.6,250.1z M456.2,303.3l-32.8-32.8v-17.3l50.1,50.1H456.2
			L456.2,303.3z M371.6,303.3l50.1-50.1v17.3l-32.8,32.8L371.6,303.3L371.6,303.3z M421.8,304.3h1.6v-31.5l31.4,31.4l-32.2,32.2
			l-32.2-32.2l31.4-31.4L421.8,304.3L421.8,304.3z M473.5,304.9L423.4,355v-17.3l32.8-32.8L473.5,304.9L473.5,304.9z M421.8,355.1
			L371.7,305H389l32.8,32.8L421.8,355.1L421.8,355.1z"/>
	</g>
</g>
<g class="st0">
	<g>
		<path class="st1" d="M420.8,103.5V118l-32.3,32.3H374L420.8,103.5 M421.8,101.1l-50.1,50.1H389l32.8-32.8L421.8,101.1L421.8,101.1
			z"/>
	</g>
	<g>
		<path class="st1" d="M424.4,123.1l29,29l-30.8,30.8l-30.8-30.8l29-29v29.1v1h1h1.6h1v-1L424.4,123.1 M423.4,120.7v31.5h-1.6v-31.5
			l-31.4,31.4l32.2,32.2l32.2-32.2L423.4,120.7L423.4,120.7z"/>
	</g>
	<g>
		<path class="st1" d="M422.6,98.1l-54,54l54,54l54-54L422.6,98.1L422.6,98.1z M456.2,151.3l-32.8-32.8v-17.3l50.1,50.1L456.2,151.3
			L456.2,151.3z M371.6,151.3l50.1-50.1v17.3l-32.8,32.8H371.6L371.6,151.3z M421.8,152.2h1.6v-31.5l31.4,31.4l-32.2,32.2
			l-32.2-32.2l31.4-31.4L421.8,152.2L421.8,152.2z M473.5,152.9L423.4,203v-17.3l32.8-32.8H473.5L473.5,152.9z M421.8,203
			l-50.1-50.1H389l32.8,32.8L421.8,203L421.8,203z"/>
	</g>
</g>
<g class="st0">
	<g>
		<path class="st1" d="M318.7,123.1l29,29l-30.8,30.8l-30.8-30.8l29-29v29.1v1h1h1.6h1v-1L318.7,123.1 M317.7,120.7v31.5h-1.6v-31.5
			l-31.4,31.4l32.2,32.2l32.2-32.2L317.7,120.7L317.7,120.7z"/>
	</g>
	<g>
		<path class="st1" d="M318.7,103.5l46.7,46.7H351L318.7,118V103.5 M317.7,101.1v17.3l32.8,32.8h17.3L317.7,101.1L317.7,101.1z"/>
	</g>
	<g>
		<path class="st1" d="M316.9,98.1l-54,54l54,54l54-54L316.9,98.1L316.9,98.1z M350.6,151.3l-32.8-32.8v-17.3l50.1,50.1L350.6,151.3
			L350.6,151.3z M266,151.3l50.1-50.1v17.3l-32.8,32.8H266L266,151.3z M316.1,152.2h1.6v-31.5l31.4,31.4l-32.2,32.2l-32.2-32.2
			l31.4-31.4L316.1,152.2L316.1,152.2z M367.9,152.9L317.7,203v-17.3l32.8-32.8H367.9L367.9,152.9z M316.1,203L266,152.9h17.3
			l32.8,32.8L316.1,203L316.1,203z"/>
	</g>
</g>
<g class="st0">
	<g>
		<path class="st1" d="M475.4,22l-54,54l54,54l54-54L475.4,22L475.4,22z M509.1,75.2l-32.8-32.8V25.1l50.1,50.1H509.1L509.1,75.2z
			 M424.5,75.2l50.1-50.1v17.3l-32.8,32.8H424.5L424.5,75.2z M474.6,76.2h1.6V44.7L507.6,76l-32.2,32.2L443.2,76l31.4-31.4V76.2
			L474.6,76.2z M526.4,76.8L476.2,127v-17.3L509,76.9L526.4,76.8L526.4,76.8z M474.6,127l-50.1-50.1h17.3l32.8,32.8L474.6,127
			L474.6,127z"/>
	</g>
</g>
<g class="st0">
	<g>
		<path class="st1" d="M368,27.5V42l-32.3,32.3h-14.5L368,27.5 M369,25.1l-50.1,50.1h17.3L369,42.4V25.1L369,25.1z"/>
	</g>
	<g>
		<path class="st1" d="M335.7,77.8l32.3,32.3v14.5l-46.7-46.7h14.4 M336.1,76.8h-17.3L369,127v-17.3L336.1,76.8L336.1,76.8z"/>
	</g>
	<g>
		<path class="st1" d="M368,47.1v29.1v1h1h1.6h1v-1V47.1l29,29l-30.8,30.8L339,76L368,47.1 M370.6,44.7v31.5H369V44.7L337.6,76
			l32.2,32.2L401.9,76L370.6,44.7L370.6,44.7z"/>
	</g>
	<g>
		<path class="st1" d="M371.6,27.5l46.7,46.7h-14.5L371.6,42V27.5 M370.6,25.1v17.3l32.8,32.8h17.3L370.6,25.1L370.6,25.1z"/>
	</g>
	<g>
		<path class="st1" d="M418.3,77.8l-46.7,46.7V110l32.3-32.3h14.4 M420.7,76.8h-17.3l-32.8,32.8V127L420.7,76.8L420.7,76.8z"/>
	</g>
	<g>
		<path class="st1" d="M369.8,22l-54,54l54,54l54-54L369.8,22L369.8,22z M403.4,75.2l-32.8-32.8V25.1l50.1,50.1H403.4L403.4,75.2z
			 M318.8,75.2L369,25.1v17.3l-32.8,32.8H318.8L318.8,75.2z M369,76.2h1.6V44.7L401.9,76l-32.2,32.2L337.6,76L369,44.7V76.2
			L369,76.2z M420.7,76.8L370.6,127v-17.3l32.8-32.8L420.7,76.8L420.7,76.8z M369,127l-50.1-50.1h17.3l32.8,32.8L369,127L369,127z"
			/>
	</g>
</g>
<g class="st0">
	<g>
		<path class="st1" d="M264.1,22l-54,54l54,54l54-54L264.1,22L264.1,22z M297.8,75.2L265,42.4V25.1l50.1,50.1H297.8L297.8,75.2z
			 M213.2,75.2l50.1-50.1v17.3l-32.8,32.8H213.2L213.2,75.2z M263.3,76.2h1.6V44.7L296.3,76l-32.2,32.2L231.9,76l31.4-31.4V76.2
			L263.3,76.2z M315.1,76.8L264.9,127v-17.3l32.8-32.8L315.1,76.8L315.1,76.8z M263.3,127l-50.1-50.1h17.3l32.8,32.8V127L263.3,127z
			"/>
	</g>
</g>
<g class="st0">
	<g>
		<path class="st1" d="M388.5,1.8l32.3,32.3v14.5L374.1,1.8H388.5 M388.9,0.8h-17.3l50.1,50.1V33.6L388.9,0.8L388.9,0.8z"/>
	</g>
	<g>
		<path class="st1" d="M424.4-29l29,29l-30.8,30.8L391.8,0l29-29V0.1v1h1h1.6h1v-1V-29 M423.4-31.4V0.1h-1.6v-31.5L390.4,0
			l32.2,32.2L454.8,0L423.4-31.4L423.4-31.4z"/>
	</g>
	<g>
		<path class="st1" d="M422.6-54l-54,54l54,54l54-54L422.6-54L422.6-54z M456.2-0.8l-32.8-32.8v-17.3l50.1,50.1L456.2-0.8L456.2-0.8
			z M371.6-0.8l50.1-50.1v17.3L388.9-0.8H371.6L371.6-0.8z M421.8,0.1h1.6v-31.5L454.8,0l-32.2,32.2L390.4,0l31.4-31.4V0.1
			L421.8,0.1z M473.5,0.8l-50.1,50.1V33.6l32.8-32.8L473.5,0.8L473.5,0.8z M421.8,50.9L371.6,0.8h17.3l32.8,32.8v17.3H421.8z"/>
	</g>
</g>
<g class="st0">
	<g>
		<path class="st1" d="M318.7-29l29,29l-30.8,30.8L286.2,0l29-29V0.1v1h1h1.6h1v-1V-29 M317.7-31.4V0.1h-1.6v-31.5L284.8,0L317,32.2
			L349.1,0L317.7-31.4L317.7-31.4z"/>
	</g>
	<g>
		<path class="st1" d="M365.5,1.8l-46.7,46.7V34.1L351,1.8H365.5 M367.9,0.8h-17.3l-32.8,32.8v17.3L367.9,0.8L367.9,0.8z"/>
	</g>
	<g>
		<path class="st1" d="M316.9-54l-54,54l54,54l54-54L316.9-54L316.9-54z M350.6-0.8l-32.8-32.8v-17.3l50.1,50.1L350.6-0.8L350.6-0.8
			z M266-0.8l50.1-50.1v17.3L283.3-0.8H266L266-0.8z M316.1,0.1h1.6v-31.5L349.1,0l-32.2,32.2L284.8,0l31.4-31.4L316.1,0.1
			L316.1,0.1z M367.9,0.8l-50.1,50.1V33.6l32.8-32.8L367.9,0.8L367.9,0.8z M316.1,50.9L266,0.8h17.3l32.8,32.8L316.1,50.9
			L316.1,50.9z"/>
	</g>
</g>
<g class="st0">
	<g>
		<path class="st1" d="M420.8,255.6v14.5l-32.3,32.3H374L420.8,255.6 M421.8,253.2l-50.1,50.1H389l32.8-32.8L421.8,253.2
			L421.8,253.2z"/>
	</g>
	<g>
		<path class="st1" d="M424.4,275.2l29,29L422.6,335l-30.8-30.8l29-29v29.1v1h1h1.6h1v-1L424.4,275.2 M423.4,272.8v31.5h-1.6v-31.5
			l-31.4,31.4l32.2,32.2l32.2-32.2L423.4,272.8L423.4,272.8z"/>
	</g>
	<g>
		<path class="st1" d="M422.6,250.1l-54,54l54,54l54-54L422.6,250.1L422.6,250.1z M456.2,303.3l-32.8-32.8v-17.3l50.1,50.1H456.2
			L456.2,303.3z M371.6,303.3l50.1-50.1v17.3l-32.8,32.8L371.6,303.3L371.6,303.3z M421.8,304.3h1.6v-31.5l31.4,31.4l-32.2,32.2
			l-32.2-32.2l31.4-31.4L421.8,304.3L421.8,304.3z M473.5,304.9L423.4,355v-17.3l32.8-32.8L473.5,304.9L473.5,304.9z M421.8,355.1
			L371.7,305H389l32.8,32.8L421.8,355.1L421.8,355.1z"/>
	</g>
</g>
<g class="st0">
	<g>
		<path class="st1" d="M318.7,275.2l29,29L316.9,335l-30.8-30.8l29-29v29.1v1h1h1.6h1v-1L318.7,275.2 M317.7,272.8v31.5h-1.6v-31.5
			l-31.4,31.4l32.2,32.2l32.2-32.2L317.7,272.8L317.7,272.8z"/>
	</g>
	<g>
		<path class="st1" d="M318.7,255.6l46.7,46.7H351L318.7,270V255.6 M317.7,253.2v17.3l32.8,32.8h17.3L317.7,253.2L317.7,253.2z"/>
	</g>
	<g>
		<path class="st1" d="M316.9,250.1l-54,54l54,54l54-54L316.9,250.1L316.9,250.1z M350.6,303.3l-32.8-32.8v-17.3l50.1,50.1H350.6
			L350.6,303.3z M266,303.3l50.1-50.1v17.3l-32.8,32.8L266,303.3L266,303.3z M316.1,304.3h1.6v-31.5l31.4,31.4l-32.2,32.2
			l-32.2-32.2l31.4-31.4L316.1,304.3L316.1,304.3z M367.9,304.9L317.8,355v-17.3l32.8-32.8L367.9,304.9L367.9,304.9z M316.1,355.1
			L266,304.9h17.3l32.8,32.8L316.1,355.1L316.1,355.1z"/>
	</g>
</g>
<g class="st0">
	<g>
		<path class="st1" d="M475.4,174.1l-54,54l54,54l54-54L475.4,174.1L475.4,174.1z M509.1,227.3l-32.8-32.8v-17.3l50.1,50.1
			L509.1,227.3L509.1,227.3z M424.5,227.3l50.1-50.1v17.3l-32.8,32.8L424.5,227.3L424.5,227.3z M474.6,228.2h1.6v-31.5l31.4,31.4
			l-32.2,32.2l-32.2-32.2l31.4-31.4L474.6,228.2L474.6,228.2z M526.4,228.9L476.2,279v-17.3l32.8-32.8L526.4,228.9L526.4,228.9z
			 M474.6,279l-50.1-50.1h17.3l32.8,32.8L474.6,279L474.6,279z"/>
	</g>
</g>
<g class="st0">
	<g>
		<path class="st1" d="M368,179.6V194l-32.3,32.3h-14.5L368,179.6 M369,177.2l-50.1,50.1h17.3l32.8-32.8L369,177.2L369,177.2z"/>
	</g>
	<g>
		<path class="st1" d="M335.7,229.9l32.3,32.3v14.5L321.3,230L335.7,229.9 M336.1,228.9h-17.3L369,279v-17.3L336.1,228.9
			L336.1,228.9z"/>
	</g>
	<g>
		<path class="st1" d="M368,199.1v29.1v1h1h1.6h1v-1v-29.1l29,29l-30.8,30.8L339,228.1L368,199.1 M370.6,196.7v31.5H369v-31.5
			l-31.4,31.4l32.2,32.2l32.2-32.2L370.6,196.7L370.6,196.7z"/>
	</g>
	<g>
		<path class="st1" d="M371.6,179.6l46.7,46.7h-14.5L371.6,194V179.6 M370.6,177.2v17.3l32.8,32.8h17.3L370.6,177.2L370.6,177.2z"/>
	</g>
	<g>
		<path class="st1" d="M418.3,229.9l-46.7,46.7v-14.5l32.3-32.3L418.3,229.9 M420.7,228.9h-17.3l-32.8,32.8V279L420.7,228.9
			L420.7,228.9z"/>
	</g>
	<g>
		<path class="st1" d="M369.8,174.1l-54,54l54,54l54-54L369.8,174.1L369.8,174.1z M403.4,227.3l-32.8-32.8v-17.3l50.1,50.1
			L403.4,227.3L403.4,227.3z M318.8,227.3l50.1-50.1v17.3l-32.8,32.8L318.8,227.3L318.8,227.3z M369,228.2h1.6v-31.5l31.4,31.4
			l-32.2,32.2l-32.2-32.2l31.4-31.4L369,228.2L369,228.2z M420.7,228.9L370.6,279v-17.3l32.8-32.8L420.7,228.9L420.7,228.9z
			 M369,279l-50.1-50.1h17.3l32.8,32.8L369,279L369,279z"/>
	</g>
</g>
<g class="st0">
	<g>
		<path class="st1" d="M264.1,174.1l-54,54l54,54l54-54L264.1,174.1L264.1,174.1z M297.8,227.3L265,194.5v-17.3l50.1,50.1
			L297.8,227.3L297.8,227.3z M213.2,227.3l50.1-50.1v17.3l-32.8,32.8L213.2,227.3L213.2,227.3z M263.3,228.2h1.6v-31.5l31.4,31.4
			l-32.2,32.2l-32.2-32.2l31.4-31.4V228.2L263.3,228.2z M315.1,228.9L264.9,279v-17.3l32.8-32.8L315.1,228.9L315.1,228.9z
			 M263.3,279l-50.1-50.1h17.3l32.8,32.8V279L263.3,279z"/>
	</g>
</g>
<g class="st0">
	<g>
		<path class="st1" d="M388.5,153.9l32.3,32.3v14.5L374.1,154h14.4 M388.9,152.9h-17.3l50.1,50.1v-17.3L388.9,152.9L388.9,152.9z"/>
	</g>
	<g>
		<path class="st1" d="M424.4,123.1l29,29l-30.8,30.8l-30.8-30.8l29-29v29.1v1h1h1.6h1v-1L424.4,123.1 M423.4,120.7v31.5h-1.6v-31.5
			l-31.4,31.4l32.2,32.2l32.2-32.2L423.4,120.7L423.4,120.7z"/>
	</g>
	<g>
		<path class="st1" d="M422.6,98.1l-54,54l54,54l54-54L422.6,98.1L422.6,98.1z M456.2,151.3l-32.8-32.8v-17.3l50.1,50.1L456.2,151.3
			L456.2,151.3z M371.6,151.3l50.1-50.1v17.3l-32.8,32.8H371.6L371.6,151.3z M421.8,152.2h1.6v-31.5l31.4,31.4l-32.2,32.2
			l-32.2-32.2l31.4-31.4L421.8,152.2L421.8,152.2z M473.5,152.9L423.4,203v-17.3l32.8-32.8H473.5L473.5,152.9z M421.8,203
			l-50.1-50.1H389l32.8,32.8L421.8,203L421.8,203z"/>
	</g>
</g>
<g class="st0">
	<g>
		<path class="st1" d="M318.7,123.1l29,29l-30.8,30.8l-30.8-30.8l29-29v29.1v1h1h1.6h1v-1L318.7,123.1 M317.7,120.7v31.5h-1.6v-31.5
			l-31.4,31.4l32.2,32.2l32.2-32.2L317.7,120.7L317.7,120.7z"/>
	</g>
	<g>
		<path class="st1" d="M365.5,153.9l-46.7,46.7v-14.5l32.3-32.3h14.4 M367.9,152.9h-17.3l-32.8,32.8V203L367.9,152.9L367.9,152.9z"
			/>
	</g>
	<g>
		<path class="st1" d="M316.9,98.1l-54,54l54,54l54-54L316.9,98.1L316.9,98.1z M350.6,151.3l-32.8-32.8v-17.3l50.1,50.1L350.6,151.3
			L350.6,151.3z M266,151.3l50.1-50.1v17.3l-32.8,32.8H266L266,151.3z M316.1,152.2h1.6v-31.5l31.4,31.4l-32.2,32.2l-32.2-32.2
			l31.4-31.4L316.1,152.2L316.1,152.2z M367.9,152.9L317.7,203v-17.3l32.8-32.8H367.9L367.9,152.9z M316.1,203L266,152.9h17.3
			l32.8,32.8L316.1,203L316.1,203z"/>
	</g>
</g>
<g class="st0">
	<g>
		<path class="st1" d="M420.8,407.7v14.5l-32.3,32.3H374L420.8,407.7 M421.8,405.3l-50.1,50.1H389l32.8-32.8L421.8,405.3
			L421.8,405.3z"/>
	</g>
	<g>
		<path class="st1" d="M424.4,427.2l29,29L422.6,487l-30.8-30.8l29-29v29.1v1h1h1.6h1v-1L424.4,427.2 M423.4,424.8v31.5h-1.6v-31.5
			l-31.4,31.4l32.2,32.2l32.2-32.2L423.4,424.8L423.4,424.8z"/>
	</g>
	<g>
		<path class="st1" d="M422.6,402.2l-54,54l54,54l54-54L422.6,402.2L422.6,402.2z M456.2,455.4l-32.8-32.8v-17.3l50.1,50.1
			L456.2,455.4L456.2,455.4z M371.6,455.4l50.1-50.1v17.3l-32.8,32.8L371.6,455.4L371.6,455.4z M421.8,456.3h1.6v-31.5l31.4,31.4
			l-32.2,32.2l-32.2-32.2l31.4-31.4L421.8,456.3L421.8,456.3z M473.5,457l-50.1,50.1v-17.3l32.8-32.8L473.5,457L473.5,457z
			 M421.8,507.2L371.6,457h17.3l32.8,32.8v17.4H421.8z"/>
	</g>
</g>
<g class="st0">
	<g>
		<path class="st1" d="M318.7,427.2l29,29L316.9,487l-30.8-30.8l29-29v29.1v1h1h1.6h1v-1V427.2 M317.7,424.8v31.5h-1.6v-31.5
			l-31.4,31.4l32.2,32.2l32.2-32.2L317.7,424.8L317.7,424.8z"/>
	</g>
	<g>
		<path class="st1" d="M318.7,407.7l46.7,46.7H351l-32.3-32.3V407.7 M317.7,405.3v17.3l32.8,32.8h17.3L317.7,405.3L317.7,405.3z"/>
	</g>
	<g>
		<path class="st1" d="M316.9,402.2l-54,54l54,54l54-54L316.9,402.2L316.9,402.2z M350.6,455.4l-32.8-32.8v-17.3l50.1,50.1
			L350.6,455.4L350.6,455.4z M266,455.4l50.1-50.1v17.3l-32.8,32.8L266,455.4L266,455.4z M316.1,456.3h1.6v-31.5l31.4,31.4
			l-32.2,32.2l-32.2-32.2l31.4-31.4L316.1,456.3L316.1,456.3z M367.9,457l-50.1,50.1v-17.3l32.8-32.8L367.9,457L367.9,457z
			 M316.1,507.2L266,457h17.3l32.8,32.8L316.1,507.2L316.1,507.2z"/>
	</g>
</g>
<g class="st0">
	<g>
		<path class="st1" d="M475.4,326.2l-54,54l54,54l54-54L475.4,326.2L475.4,326.2z M509.1,379.4l-32.8-32.8v-17.3l50.1,50.1
			L509.1,379.4L509.1,379.4z M424.5,379.4l50.1-50.1v17.3l-32.8,32.8L424.5,379.4L424.5,379.4z M474.6,380.3h1.6v-31.5l31.4,31.4
			l-32.2,32.2l-32.2-32.2l31.4-31.4L474.6,380.3L474.6,380.3z M526.4,381l-50.1,50.1v-17.3l32.8-32.8L526.4,381L526.4,381z
			 M474.6,431.1L424.5,381h17.3l32.8,32.8L474.6,431.1L474.6,431.1z"/>
	</g>
</g>
<g class="st0">
	<g>
		<path class="st1" d="M368,331.6v14.5l-32.3,32.3h-14.5L368,331.6 M369,329.2l-50.1,50.1h17.3l32.8-32.8L369,329.2L369,329.2z"/>
	</g>
	<g>
		<path class="st1" d="M335.7,382l32.3,32.3v14.5L321.2,382H335.7 M336.1,381h-17.3l50.1,50.1v-17.3L336.1,381L336.1,381z"/>
	</g>
	<g>
		<path class="st1" d="M368,351.2v29.1v1h1h1.6h1v-1v-29.1l29,29L369.8,411L339,380.2L368,351.2 M370.6,348.8v31.5H369v-31.5
			l-31.4,31.4l32.2,32.2l32.2-32.2L370.6,348.8L370.6,348.8z"/>
	</g>
	<g>
		<path class="st1" d="M371.6,331.6l46.7,46.7h-14.5L371.5,346L371.6,331.6 M370.6,329.2v17.3l32.8,32.8h17.3L370.6,329.2
			L370.6,329.2z"/>
	</g>
	<g>
		<path class="st1" d="M418.3,382l-46.7,46.7v-14.5l32.3-32.3L418.3,382 M420.7,381h-17.3l-32.8,32.8v17.3L420.7,381L420.7,381z"/>
	</g>
	<g>
		<path class="st1" d="M369.8,326.2l-54,54l54,54l54-54L369.8,326.2L369.8,326.2z M403.4,379.4l-32.8-32.8v-17.3l50.1,50.1
			L403.4,379.4L403.4,379.4z M318.8,379.4l50.1-50.1v17.3l-32.8,32.8L318.8,379.4L318.8,379.4z M369,380.3h1.6v-31.5l31.4,31.4
			l-32.2,32.2l-32.2-32.2l31.4-31.4L369,380.3L369,380.3z M420.7,381l-50.1,50.1v-17.3l32.8-32.8L420.7,381L420.7,381z M369,431.1
			L318.8,381h17.3l32.8,32.8v17.3H369z"/>
	</g>
</g>
<g class="st0">
	<g>
		<path class="st1" d="M264.1,326.2l-54,54l54,54l54-54L264.1,326.2L264.1,326.2z M297.8,379.4L265,346.6v-17.3l50.1,50.1
			L297.8,379.4L297.8,379.4z M213.2,379.4l50.1-50.1v17.3l-32.8,32.8L213.2,379.4L213.2,379.4z M263.3,380.3h1.6v-31.5l31.4,31.4
			l-32.2,32.2l-32.2-32.2l31.4-31.4V380.3L263.3,380.3z M315.1,381L265,431.1v-17.3l32.8-32.8L315.1,381L315.1,381z M263.3,431.1
			L213.2,381h17.3l32.8,32.8V431.1L263.3,431.1z"/>
	</g>
</g>
<g class="st0">
	<g>
		<path class="st1" d="M388.5,305.9l32.3,32.3v14.5L374.1,306L388.5,305.9 M388.9,304.9h-17.3l50.1,50.1v-17.3L388.9,304.9
			L388.9,304.9z"/>
	</g>
	<g>
		<path class="st1" d="M424.4,275.2l29,29L422.6,335l-30.8-30.8l29-29v29.1v1h1h1.6h1v-1L424.4,275.2 M423.4,272.8v31.5h-1.6v-31.5
			l-31.4,31.4l32.2,32.2l32.2-32.2L423.4,272.8L423.4,272.8z"/>
	</g>
	<g>
		<path class="st1" d="M422.6,250.1l-54,54l54,54l54-54L422.6,250.1L422.6,250.1z M456.2,303.3l-32.8-32.8v-17.3l50.1,50.1H456.2
			L456.2,303.3z M371.6,303.3l50.1-50.1v17.3l-32.8,32.8L371.6,303.3L371.6,303.3z M421.8,304.3h1.6v-31.5l31.4,31.4l-32.2,32.2
			l-32.2-32.2l31.4-31.4L421.8,304.3L421.8,304.3z M473.5,304.9L423.4,355v-17.3l32.8-32.8L473.5,304.9L473.5,304.9z M421.8,355.1
			L371.7,305H389l32.8,32.8L421.8,355.1L421.8,355.1z"/>
	</g>
</g>
<g class="st0">
	<g>
		<path class="st1" d="M318.7,275.2l29,29L316.9,335l-30.8-30.8l29-29v29.1v1h1h1.6h1v-1L318.7,275.2 M317.7,272.8v31.5h-1.6v-31.5
			l-31.4,31.4l32.2,32.2l32.2-32.2L317.7,272.8L317.7,272.8z"/>
	</g>
	<g>
		<path class="st1" d="M365.5,305.9l-46.7,46.7v-14.5l32.3-32.3L365.5,305.9 M367.9,304.9h-17.3l-32.8,32.8V355L367.9,304.9
			L367.9,304.9z"/>
	</g>
	<g>
		<path class="st1" d="M316.9,250.1l-54,54l54,54l54-54L316.9,250.1L316.9,250.1z M350.6,303.3l-32.8-32.8v-17.3l50.1,50.1H350.6
			L350.6,303.3z M266,303.3l50.1-50.1v17.3l-32.8,32.8L266,303.3L266,303.3z M316.1,304.3h1.6v-31.5l31.4,31.4l-32.2,32.2
			l-32.2-32.2l31.4-31.4L316.1,304.3L316.1,304.3z M367.9,304.9L317.8,355v-17.3l32.8-32.8L367.9,304.9L367.9,304.9z M316.1,355.1
			L266,304.9h17.3l32.8,32.8L316.1,355.1L316.1,355.1z"/>
	</g>
</g>
<g class="st0">
	<g>
		<path class="st1" d="M315.1,103.5V118l-32.3,32.3h-14.5L315.1,103.5 M316.1,101.1L266,151.3h17.3l32.8-32.8L316.1,101.1
			L316.1,101.1z"/>
	</g>
	<g>
		<path class="st1" d="M318.7,123.1l29,29l-30.8,30.8l-30.8-30.8l29-29v29.1v1h1h1.6h1v-1L318.7,123.1 M317.7,120.7v31.5h-1.6v-31.5
			l-31.4,31.4l32.2,32.2l32.2-32.2L317.7,120.7L317.7,120.7z"/>
	</g>
	<g>
		<path class="st1" d="M316.9,98.1l-54,54l54,54l54-54L316.9,98.1L316.9,98.1z M350.6,151.3l-32.8-32.8v-17.3l50.1,50.1L350.6,151.3
			L350.6,151.3z M266,151.3l50.1-50.1v17.3l-32.8,32.8H266L266,151.3z M316.1,152.2h1.6v-31.5l31.4,31.4l-32.2,32.2l-32.2-32.2
			l31.4-31.4L316.1,152.2L316.1,152.2z M367.9,152.9L317.7,203v-17.3l32.8-32.8H367.9L367.9,152.9z M316.1,203L266,152.9h17.3
			l32.8,32.8L316.1,203L316.1,203z"/>
	</g>
</g>
<g class="st0">
	<g>
		<path class="st1" d="M213.1,123.1l29,29l-30.8,30.8l-30.8-30.8l29-29v29.1v1h1h1.6h1v-1V123.1 M212.1,120.7v31.5h-1.6v-31.5
			l-31.4,31.4l32.2,32.2l32.2-32.2L212.1,120.7L212.1,120.7z"/>
	</g>
	<g>
		<path class="st1" d="M213.1,103.5l46.7,46.7h-14.5L213.1,118V103.5 M212.1,101.1v17.3l32.8,32.8h17.3L212.1,101.1L212.1,101.1z"/>
	</g>
	<g>
		<path class="st1" d="M211.3,98.1l-54,54l54,54l54-54L211.3,98.1L211.3,98.1z M244.9,151.3l-32.8-32.8v-17.3l50.1,50.1L244.9,151.3
			L244.9,151.3z M160.3,151.3l50.1-50.1v17.3l-32.8,32.8H160.3L160.3,151.3z M210.5,152.2h1.6v-31.5l31.4,31.4l-32.2,32.2
			l-32.2-32.2l31.4-31.4V152.2L210.5,152.2z M262.2,152.9L212.1,203v-17.3l32.8-32.8H262.2L262.2,152.9z M210.5,203l-50.1-50.1h17.3
			l32.8,32.8V203L210.5,203z"/>
	</g>
</g>
<g class="st0">
	<g>
		<path class="st1" d="M369.8,22l-54,54l54,54l54-54L369.8,22L369.8,22z M403.4,75.2l-32.8-32.8V25.1l50.1,50.1H403.4L403.4,75.2z
			 M318.8,75.2L369,25.1v17.3l-32.8,32.8H318.8L318.8,75.2z M369,76.2h1.6V44.7L401.9,76l-32.2,32.2L337.6,76L369,44.7V76.2
			L369,76.2z M420.7,76.8L370.6,127v-17.3l32.8-32.8L420.7,76.8L420.7,76.8z M369,127l-50.1-50.1h17.3l32.8,32.8L369,127L369,127z"
			/>
	</g>
</g>
<g class="st0">
	<g>
		<path class="st1" d="M262.3,27.5V42L230,74.3h-14.5L262.3,27.5 M263.3,25.1l-50.1,50.1h17.3l32.8-32.8V25.1L263.3,25.1z"/>
	</g>
	<g>
		<path class="st1" d="M230.1,77.8l32.3,32.3v14.5l-46.7-46.7h14.4 M230.5,76.8h-17.3l50.1,50.1v-17.3L230.5,76.8L230.5,76.8z"/>
	</g>
	<g>
		<path class="st1" d="M265.9,47.1l29,29l-30.8,30.8L233.4,76l29-29v29.1v1h1h1.6h1v-1v-29 M264.9,44.7v31.5h-1.6V44.7L231.9,76
			l32.2,32.2L296.3,76L264.9,44.7L264.9,44.7z"/>
	</g>
	<g>
		<path class="st1" d="M265.9,27.5l46.7,46.7h-14.5L265.9,42V27.5 M264.9,25.1v17.3l32.8,32.8H315L264.9,25.1L264.9,25.1z"/>
	</g>
	<g>
		<path class="st1" d="M312.7,77.8L266,124.5V110l32.3-32.3h14.4 M315.1,76.8h-17.3L265,109.6V127L315.1,76.8L315.1,76.8z"/>
	</g>
	<g>
		<path class="st1" d="M264.1,22l-54,54l54,54l54-54L264.1,22L264.1,22z M297.8,75.2L265,42.4V25.1l50.1,50.1H297.8L297.8,75.2z
			 M213.2,75.2l50.1-50.1v17.3l-32.8,32.8H213.2L213.2,75.2z M263.3,76.2h1.6V44.7L296.3,76l-32.2,32.2L231.9,76l31.4-31.4V76.2
			L263.3,76.2z M315.1,76.8L264.9,127v-17.3l32.8-32.8L315.1,76.8L315.1,76.8z M263.3,127l-50.1-50.1h17.3l32.8,32.8V127L263.3,127z
			"/>
	</g>
</g>
<g class="st0">
	<g>
		<path class="st1" d="M158.5,22l-54,54l54,54l54-54L158.5,22L158.5,22z M192.1,75.2l-32.8-32.8V25.1l50.1,50.1H192.1L192.1,75.2z
			 M107.5,75.2l50.1-50.1v17.3l-32.8,32.8H107.5L107.5,75.2z M157.7,76.2h1.6V44.7L190.7,76l-32.2,32.2L126.3,76l31.4-31.4V76.2
			L157.7,76.2z M209.4,76.8L159.3,127v-17.3l32.8-32.8L209.4,76.8L209.4,76.8z M157.7,127l-50.1-50.1h17.3l32.8,32.8V127L157.7,127z
			"/>
	</g>
</g>
<g class="st0">
	<g>
		<path class="st1" d="M282.9,1.8l32.3,32.3v14.5L268.4,1.8H282.9 M283.3,0.8H266l50.1,50.1V33.6L283.3,0.8L283.3,0.8z"/>
	</g>
	<g>
		<path class="st1" d="M318.7-29l29,29l-30.8,30.8L286.2,0l29-29V0.1v1h1h1.6h1v-1V-29 M317.7-31.4V0.1h-1.6v-31.5L284.8,0L317,32.2
			L349.1,0L317.7-31.4L317.7-31.4z"/>
	</g>
	<g>
		<path class="st1" d="M316.9-54l-54,54l54,54l54-54L316.9-54L316.9-54z M350.6-0.8l-32.8-32.8v-17.3l50.1,50.1L350.6-0.8L350.6-0.8
			z M266-0.8l50.1-50.1v17.3L283.3-0.8H266L266-0.8z M316.1,0.1h1.6v-31.5L349.1,0l-32.2,32.2L284.8,0l31.4-31.4L316.1,0.1
			L316.1,0.1z M367.9,0.8l-50.1,50.1V33.6l32.8-32.8L367.9,0.8L367.9,0.8z M316.1,50.9L266,0.8h17.3l32.8,32.8L316.1,50.9
			L316.1,50.9z"/>
	</g>
</g>
<g class="st0">
	<g>
		<path class="st1" d="M213.1-29l29,29l-30.8,30.8L180.5,0l29-29V0.1v1h1h1.6h1v-1V-29 M212.1-31.4V0.1h-1.6v-31.5L179.1,0
			l32.2,32.2L243.5,0L212.1-31.4L212.1-31.4z"/>
	</g>
	<g>
		<path class="st1" d="M259.8,1.8l-46.7,46.7V34.1l32.3-32.3L259.8,1.8 M262.2,0.8h-17.3l-32.8,32.8v17.3L262.2,0.8L262.2,0.8z"/>
	</g>
	<g>
		<path class="st1" d="M211.3-54l-54,54l54,54l54-54L211.3-54L211.3-54z M244.9-0.8l-32.8-32.8v-17.3l50.1,50.1L244.9-0.8L244.9-0.8
			z M160.3-0.8l50.1-50.1v17.3L177.6-0.8H160.3L160.3-0.8z M210.5,0.1h1.6v-31.5L243.5,0l-32.2,32.2L179.1,0l31.4-31.4V0.1
			L210.5,0.1z M262.2,0.8l-50.1,50.1V33.6l32.8-32.8L262.2,0.8L262.2,0.8z M210.5,50.9L160.3,0.8h17.3l32.8,32.8L210.5,50.9
			L210.5,50.9z"/>
	</g>
</g>
<g class="st0">
	<g>
		<path class="st1" d="M315.1,255.6v14.5l-32.3,32.3h-14.5L315.1,255.6 M316.1,253.2L266,303.3h17.3l32.8-32.8L316.1,253.2
			L316.1,253.2z"/>
	</g>
	<g>
		<path class="st1" d="M318.7,275.2l29,29L316.9,335l-30.8-30.8l29-29v29.1v1h1h1.6h1v-1L318.7,275.2 M317.7,272.8v31.5h-1.6v-31.5
			l-31.4,31.4l32.2,32.2l32.2-32.2L317.7,272.8L317.7,272.8z"/>
	</g>
	<g>
		<path class="st1" d="M316.9,250.1l-54,54l54,54l54-54L316.9,250.1L316.9,250.1z M350.6,303.3l-32.8-32.8v-17.3l50.1,50.1H350.6
			L350.6,303.3z M266,303.3l50.1-50.1v17.3l-32.8,32.8L266,303.3L266,303.3z M316.1,304.3h1.6v-31.5l31.4,31.4l-32.2,32.2
			l-32.2-32.2l31.4-31.4L316.1,304.3L316.1,304.3z M367.9,304.9L317.8,355v-17.3l32.8-32.8L367.9,304.9L367.9,304.9z M316.1,355.1
			L266,304.9h17.3l32.8,32.8L316.1,355.1L316.1,355.1z"/>
	</g>
</g>
<g class="st0">
	<g>
		<path class="st1" d="M213.1,275.2l29,29L211.3,335l-30.8-30.8l29-29v29.1v1h1h1.6h1v-1V275.2 M212.1,272.8v31.5h-1.6v-31.5
			l-31.4,31.4l32.2,32.2l32.2-32.2L212.1,272.8L212.1,272.8z"/>
	</g>
	<g>
		<path class="st1" d="M213.1,255.6l46.7,46.7h-14.5L213,270L213.1,255.6 M212.1,253.2v17.3l32.8,32.8h17.3L212.1,253.2L212.1,253.2
			z"/>
	</g>
	<g>
		<path class="st1" d="M211.3,250.1l-54,54l54,54l54-54L211.3,250.1L211.3,250.1z M244.9,303.3l-32.8-32.8v-17.3l50.1,50.1H244.9
			L244.9,303.3z M160.3,303.3l50.1-50.1v17.3l-32.8,32.8L160.3,303.3L160.3,303.3z M210.5,304.3h1.6v-31.5l31.4,31.4l-32.2,32.2
			l-32.2-32.2l31.4-31.4V304.3L210.5,304.3z M262.2,304.9L212.1,355v-17.3l32.8-32.8L262.2,304.9L262.2,304.9z M210.5,355.1
			L160.4,305h17.3l32.8,32.8V355.1L210.5,355.1z"/>
	</g>
</g>
<g class="st0">
	<g>
		<path class="st1" d="M369.8,174.1l-54,54l54,54l54-54L369.8,174.1L369.8,174.1z M403.4,227.3l-32.8-32.8v-17.3l50.1,50.1
			L403.4,227.3L403.4,227.3z M318.8,227.3l50.1-50.1v17.3l-32.8,32.8L318.8,227.3L318.8,227.3z M369,228.2h1.6v-31.5l31.4,31.4
			l-32.2,32.2l-32.2-32.2l31.4-31.4L369,228.2L369,228.2z M420.7,228.9L370.6,279v-17.3l32.8-32.8L420.7,228.9L420.7,228.9z
			 M369,279l-50.1-50.1h17.3l32.8,32.8L369,279L369,279z"/>
	</g>
</g>
<g class="st0">
	<g>
		<path class="st1" d="M262.3,179.6V194L230,226.3h-14.5L262.3,179.6 M263.3,177.2l-50.1,50.1h17.3l32.8-32.8V177.2L263.3,177.2z"/>
	</g>
	<g>
		<path class="st1" d="M230.1,229.9l32.3,32.3v14.5L215.7,230L230.1,229.9 M230.5,228.9h-17.3l50.1,50.1v-17.3L230.5,228.9
			L230.5,228.9z"/>
	</g>
	<g>
		<path class="st1" d="M265.9,199.1l29,29l-30.8,30.8l-30.8-30.8l29-29v29.1v1h1h1.6h1v-1V199.1 M264.9,196.7v31.5h-1.6v-31.5
			l-31.4,31.4l32.2,32.2l32.2-32.2L264.9,196.7L264.9,196.7z"/>
	</g>
	<g>
		<path class="st1" d="M265.9,179.6l46.7,46.7h-14.5L265.9,194V179.6 M264.9,177.2v17.3l32.8,32.8H315L264.9,177.2L264.9,177.2z"/>
	</g>
	<g>
		<path class="st1" d="M312.7,229.9L266,276.6v-14.5l32.3-32.3L312.7,229.9 M315.1,228.9h-17.3L265,261.7V279L315.1,228.9
			L315.1,228.9z"/>
	</g>
	<g>
		<path class="st1" d="M264.1,174.1l-54,54l54,54l54-54L264.1,174.1L264.1,174.1z M297.8,227.3L265,194.5v-17.3l50.1,50.1
			L297.8,227.3L297.8,227.3z M213.2,227.3l50.1-50.1v17.3l-32.8,32.8L213.2,227.3L213.2,227.3z M263.3,228.2h1.6v-31.5l31.4,31.4
			l-32.2,32.2l-32.2-32.2l31.4-31.4V228.2L263.3,228.2z M315.1,228.9L264.9,279v-17.3l32.8-32.8L315.1,228.9L315.1,228.9z
			 M263.3,279l-50.1-50.1h17.3l32.8,32.8V279L263.3,279z"/>
	</g>
</g>
<g class="st0">
	<g>
		<path class="st1" d="M158.5,174.1l-54,54l54,54l54-54L158.5,174.1L158.5,174.1z M192.1,227.3l-32.8-32.8v-17.3l50.1,50.1
			L192.1,227.3L192.1,227.3z M107.5,227.3l50.1-50.1v17.3l-32.8,32.8L107.5,227.3L107.5,227.3z M157.7,228.2h1.6v-31.5l31.4,31.4
			l-32.2,32.2l-32.2-32.2l31.4-31.4V228.2L157.7,228.2z M209.4,228.9L159.3,279v-17.3l32.8-32.8L209.4,228.9L209.4,228.9z
			 M157.7,279l-50.1-50.1h17.3l32.8,32.8V279L157.7,279z"/>
	</g>
</g>
<g class="st0">
	<g>
		<path class="st1" d="M282.9,153.9l32.3,32.3v14.5L268.5,154h14.4 M283.3,152.9H266l50.1,50.1v-17.3L283.3,152.9L283.3,152.9z"/>
	</g>
	<g>
		<path class="st1" d="M318.7,123.1l29,29l-30.8,30.8l-30.8-30.8l29-29v29.1v1h1h1.6h1v-1L318.7,123.1 M317.7,120.7v31.5h-1.6v-31.5
			l-31.4,31.4l32.2,32.2l32.2-32.2L317.7,120.7L317.7,120.7z"/>
	</g>
	<g>
		<path class="st1" d="M316.9,98.1l-54,54l54,54l54-54L316.9,98.1L316.9,98.1z M350.6,151.3l-32.8-32.8v-17.3l50.1,50.1L350.6,151.3
			L350.6,151.3z M266,151.3l50.1-50.1v17.3l-32.8,32.8H266L266,151.3z M316.1,152.2h1.6v-31.5l31.4,31.4l-32.2,32.2l-32.2-32.2
			l31.4-31.4L316.1,152.2L316.1,152.2z M367.9,152.9L317.7,203v-17.3l32.8-32.8H367.9L367.9,152.9z M316.1,203L266,152.9h17.3
			l32.8,32.8L316.1,203L316.1,203z"/>
	</g>
</g>
<g class="st0">
	<g>
		<path class="st1" d="M213.1,123.1l29,29l-30.8,30.8l-30.8-30.8l29-29v29.1v1h1h1.6h1v-1V123.1 M212.1,120.7v31.5h-1.6v-31.5
			l-31.4,31.4l32.2,32.2l32.2-32.2L212.1,120.7L212.1,120.7z"/>
	</g>
	<g>
		<path class="st1" d="M259.8,153.9l-46.7,46.7v-14.5l32.3-32.3h14.4 M262.2,152.9h-17.3l-32.8,32.8V203L262.2,152.9L262.2,152.9z"
			/>
	</g>
	<g>
		<path class="st1" d="M211.3,98.1l-54,54l54,54l54-54L211.3,98.1L211.3,98.1z M244.9,151.3l-32.8-32.8v-17.3l50.1,50.1L244.9,151.3
			L244.9,151.3z M160.3,151.3l50.1-50.1v17.3l-32.8,32.8H160.3L160.3,151.3z M210.5,152.2h1.6v-31.5l31.4,31.4l-32.2,32.2
			l-32.2-32.2l31.4-31.4V152.2L210.5,152.2z M262.2,152.9L212.1,203v-17.3l32.8-32.8H262.2L262.2,152.9z M210.5,203l-50.1-50.1h17.3
			l32.8,32.8V203L210.5,203z"/>
	</g>
</g>
<g class="st0">
	<g>
		<path class="st1" d="M315.1,407.7v14.5l-32.3,32.3h-14.5L315.1,407.7 M316.1,405.3L266,455.4h17.3l32.8-32.8L316.1,405.3
			L316.1,405.3z"/>
	</g>
	<g>
		<path class="st1" d="M318.7,427.2l29,29L316.9,487l-30.8-30.8l29-29v29.1v1h1h1.6h1v-1V427.2 M317.7,424.8v31.5h-1.6v-31.5
			l-31.4,31.4l32.2,32.2l32.2-32.2L317.7,424.8L317.7,424.8z"/>
	</g>
	<g>
		<path class="st1" d="M316.9,402.2l-54,54l54,54l54-54L316.9,402.2L316.9,402.2z M350.6,455.4l-32.8-32.8v-17.3l50.1,50.1
			L350.6,455.4L350.6,455.4z M266,455.4l50.1-50.1v17.3l-32.8,32.8L266,455.4L266,455.4z M316.1,456.3h1.6v-31.5l31.4,31.4
			l-32.2,32.2l-32.2-32.2l31.4-31.4L316.1,456.3L316.1,456.3z M367.9,457l-50.1,50.1v-17.3l32.8-32.8L367.9,457L367.9,457z
			 M316.1,507.2L266,457h17.3l32.8,32.8L316.1,507.2L316.1,507.2z"/>
	</g>
</g>
<g class="st0">
	<g>
		<path class="st1" d="M213.1,427.2l29,29L211.3,487l-30.8-30.8l29-29v29.1v1h1h1.6h1v-1V427.2 M212.1,424.8v31.5h-1.6v-31.5
			l-31.4,31.4l32.2,32.2l32.2-32.2L212.1,424.8L212.1,424.8z"/>
	</g>
	<g>
		<path class="st1" d="M213.1,407.7l46.7,46.7h-14.5L213,422.1L213.1,407.7 M212.1,405.3v17.3l32.8,32.8h17.3L212.1,405.3
			L212.1,405.3z"/>
	</g>
	<g>
		<path class="st1" d="M211.3,402.2l-54,54l54,54l54-54L211.3,402.2L211.3,402.2z M244.9,455.4l-32.8-32.8v-17.3l50.1,50.1
			L244.9,455.4L244.9,455.4z M160.3,455.4l50.1-50.1v17.3l-32.8,32.8L160.3,455.4L160.3,455.4z M210.5,456.3h1.6v-31.5l31.4,31.4
			l-32.2,32.2l-32.2-32.2l31.4-31.4V456.3L210.5,456.3z M262.2,457l-50.1,50.1v-17.3l32.8-32.8L262.2,457L262.2,457z M210.5,507.2
			L160.3,457h17.3l32.8,32.8L210.5,507.2L210.5,507.2z"/>
	</g>
</g>
<g class="st0">
	<g>
		<path class="st1" d="M369.8,326.2l-54,54l54,54l54-54L369.8,326.2L369.8,326.2z M403.4,379.4l-32.8-32.8v-17.3l50.1,50.1
			L403.4,379.4L403.4,379.4z M318.8,379.4l50.1-50.1v17.3l-32.8,32.8L318.8,379.4L318.8,379.4z M369,380.3h1.6v-31.5l31.4,31.4
			l-32.2,32.2l-32.2-32.2l31.4-31.4L369,380.3L369,380.3z M420.7,381l-50.1,50.1v-17.3l32.8-32.8L420.7,381L420.7,381z M369,431.1
			L318.8,381h17.3l32.8,32.8v17.3H369z"/>
	</g>
</g>
<g class="st0">
	<g>
		<path class="st1" d="M262.3,331.6v14.5L230,378.4h-14.5L262.3,331.6 M263.3,329.2l-50.1,50.1h17.3l32.8-32.8V329.2L263.3,329.2z"
			/>
	</g>
	<g>
		<path class="st1" d="M230.1,382l32.3,32.3v14.5L215.6,382H230.1 M230.5,381h-17.3l50.1,50.1v-17.3L230.5,381L230.5,381z"/>
	</g>
	<g>
		<path class="st1" d="M265.9,351.2l29,29L264.1,411l-30.8-30.8l29-29v29.1v1h1h1.6h1v-1V351.2 M264.9,348.8v31.5h-1.6v-31.5
			l-31.4,31.4l32.2,32.2l32.2-32.2L264.9,348.8L264.9,348.8z"/>
	</g>
	<g>
		<path class="st1" d="M265.9,331.6l46.7,46.7h-14.5L265.8,346L265.9,331.6 M264.9,329.2v17.3l32.8,32.8H315L264.9,329.2
			L264.9,329.2z"/>
	</g>
	<g>
		<path class="st1" d="M312.7,382L266,428.7v-14.5l32.3-32.3L312.7,382 M315.1,381h-17.3L265,413.8v17.3L315.1,381L315.1,381z"/>
	</g>
	<g>
		<path class="st1" d="M264.1,326.2l-54,54l54,54l54-54L264.1,326.2L264.1,326.2z M297.8,379.4L265,346.6v-17.3l50.1,50.1
			L297.8,379.4L297.8,379.4z M213.2,379.4l50.1-50.1v17.3l-32.8,32.8L213.2,379.4L213.2,379.4z M263.3,380.3h1.6v-31.5l31.4,31.4
			l-32.2,32.2l-32.2-32.2l31.4-31.4V380.3L263.3,380.3z M315.1,381L265,431.1v-17.3l32.8-32.8L315.1,381L315.1,381z M263.3,431.1
			L213.2,381h17.3l32.8,32.8V431.1L263.3,431.1z"/>
	</g>
</g>
<g class="st0">
	<g>
		<path class="st1" d="M158.5,326.2l-54,54l54,54l54-54L158.5,326.2L158.5,326.2z M192.1,379.4l-32.8-32.8v-17.3l50.1,50.1
			L192.1,379.4L192.1,379.4z M107.5,379.4l50.1-50.1v17.3l-32.8,32.8L107.5,379.4L107.5,379.4z M157.7,380.3h1.6v-31.5l31.4,31.4
			l-32.2,32.2l-32.2-32.2l31.4-31.4V380.3L157.7,380.3z M209.4,381l-50.1,50.1v-17.3l32.8-32.8L209.4,381L209.4,381z M157.7,431.1
			L107.5,381h17.3l32.8,32.8L157.7,431.1L157.7,431.1z"/>
	</g>
</g>
<g class="st0">
	<g>
		<path class="st1" d="M282.9,305.9l32.3,32.3v14.5L268.5,306L282.9,305.9 M283.3,304.9H266l50.1,50.1v-17.3L283.3,304.9
			L283.3,304.9z"/>
	</g>
	<g>
		<path class="st1" d="M318.7,275.2l29,29L316.9,335l-30.8-30.8l29-29v29.1v1h1h1.6h1v-1L318.7,275.2 M317.7,272.8v31.5h-1.6v-31.5
			l-31.4,31.4l32.2,32.2l32.2-32.2L317.7,272.8L317.7,272.8z"/>
	</g>
	<g>
		<path class="st1" d="M316.9,250.1l-54,54l54,54l54-54L316.9,250.1L316.9,250.1z M350.6,303.3l-32.8-32.8v-17.3l50.1,50.1H350.6
			L350.6,303.3z M266,303.3l50.1-50.1v17.3l-32.8,32.8L266,303.3L266,303.3z M316.1,304.3h1.6v-31.5l31.4,31.4l-32.2,32.2
			l-32.2-32.2l31.4-31.4L316.1,304.3L316.1,304.3z M367.9,304.9L317.8,355v-17.3l32.8-32.8L367.9,304.9L367.9,304.9z M316.1,355.1
			L266,304.9h17.3l32.8,32.8L316.1,355.1L316.1,355.1z"/>
	</g>
</g>
<g class="st0">
	<g>
		<path class="st1" d="M213.1,275.2l29,29L211.3,335l-30.8-30.8l29-29v29.1v1h1h1.6h1v-1V275.2 M212.1,272.8v31.5h-1.6v-31.5
			l-31.4,31.4l32.2,32.2l32.2-32.2L212.1,272.8L212.1,272.8z"/>
	</g>
	<g>
		<path class="st1" d="M259.8,305.9l-46.7,46.7v-14.5l32.3-32.3L259.8,305.9 M262.2,304.9h-17.3l-32.8,32.8V355L262.2,304.9
			L262.2,304.9z"/>
	</g>
	<g>
		<path class="st1" d="M211.3,250.1l-54,54l54,54l54-54L211.3,250.1L211.3,250.1z M244.9,303.3l-32.8-32.8v-17.3l50.1,50.1H244.9
			L244.9,303.3z M160.3,303.3l50.1-50.1v17.3l-32.8,32.8L160.3,303.3L160.3,303.3z M210.5,304.3h1.6v-31.5l31.4,31.4l-32.2,32.2
			l-32.2-32.2l31.4-31.4V304.3L210.5,304.3z M262.2,304.9L212.1,355v-17.3l32.8-32.8L262.2,304.9L262.2,304.9z M210.5,355.1
			L160.4,305h17.3l32.8,32.8V355.1L210.5,355.1z"/>
	</g>
</g>
<g class="st0">
	<g>
		<path class="st1" d="M209.5,103.5V118l-32.3,32.3h-14.5L209.5,103.5 M210.5,101.1l-50.1,50.1h17.3l32.8-32.8V101.1L210.5,101.1z"
			/>
	</g>
	<g>
		<path class="st1" d="M213.1,123.1l29,29l-30.8,30.8l-30.8-30.8l29-29v29.1v1h1h1.6h1v-1V123.1 M212.1,120.7v31.5h-1.6v-31.5
			l-31.4,31.4l32.2,32.2l32.2-32.2L212.1,120.7L212.1,120.7z"/>
	</g>
	<g>
		<path class="st1" d="M211.3,98.1l-54,54l54,54l54-54L211.3,98.1L211.3,98.1z M244.9,151.3l-32.8-32.8v-17.3l50.1,50.1L244.9,151.3
			L244.9,151.3z M160.3,151.3l50.1-50.1v17.3l-32.8,32.8H160.3L160.3,151.3z M210.5,152.2h1.6v-31.5l31.4,31.4l-32.2,32.2
			l-32.2-32.2l31.4-31.4V152.2L210.5,152.2z M262.2,152.9L212.1,203v-17.3l32.8-32.8H262.2L262.2,152.9z M210.5,203l-50.1-50.1h17.3
			l32.8,32.8V203L210.5,203z"/>
	</g>
</g>
<g class="st0">
	<g>
		<path class="st1" d="M107.4,123.1l29,29l-30.8,30.8l-30.8-30.8l29-29v29.1v1h1h1.6h1v-1L107.4,123.1 M106.4,120.7v31.5h-1.6v-31.5
			l-31.4,31.4l32.2,32.2l32.2-32.2L106.4,120.7L106.4,120.7z"/>
	</g>
	<g>
		<path class="st1" d="M107.4,103.5l46.7,46.7h-14.5L107.4,118V103.5 M106.4,101.1v17.3l32.8,32.8h17.3L106.4,101.1L106.4,101.1z"/>
	</g>
	<g>
		<path class="st1" d="M105.6,98.1l-54,54l54,54l54-54L105.6,98.1L105.6,98.1z M139.3,151.3l-32.8-32.8v-17.3l50.1,50.1L139.3,151.3
			L139.3,151.3z M54.7,151.3l50.1-50.1v17.3L72,151.3H54.7L54.7,151.3z M104.8,152.2h1.6v-31.5l31.4,31.4l-32.2,32.2l-32.2-32.2
			l31.4-31.4L104.8,152.2L104.8,152.2z M156.6,152.9L106.4,203v-17.3l32.8-32.8H156.6L156.6,152.9z M104.8,203l-50.1-50.1H72
			l32.8,32.8V203L104.8,203z"/>
	</g>
</g>
<g class="st0">
	<g>
		<path class="st1" d="M264.1,22l-54,54l54,54l54-54L264.1,22L264.1,22z M297.8,75.2L265,42.4V25.1l50.1,50.1H297.8L297.8,75.2z
			 M213.2,75.2l50.1-50.1v17.3l-32.8,32.8H213.2L213.2,75.2z M263.3,76.2h1.6V44.7L296.3,76l-32.2,32.2L231.9,76l31.4-31.4V76.2
			L263.3,76.2z M315.1,76.8L264.9,127v-17.3l32.8-32.8L315.1,76.8L315.1,76.8z M263.3,127l-50.1-50.1h17.3l32.8,32.8V127L263.3,127z
			"/>
	</g>
</g>
<g class="st0">
	<g>
		<path class="st1" d="M156.7,27.5V42l-32.3,32.3h-14.5L156.7,27.5 M157.7,25.1l-50.1,50.1h17.3l32.8-32.8V25.1L157.7,25.1z"/>
	</g>
	<g>
		<path class="st1" d="M124.4,77.8l32.3,32.3v14.5L110,77.9h14.4 M124.8,76.8h-17.3l50.1,50.1v-17.3L124.8,76.8L124.8,76.8z"/>
	</g>
	<g>
		<path class="st1" d="M160.3,47.1l29,29l-30.8,30.8L127.7,76l29-29v29.1v1h1h1.6h1v-1V47.1 M159.3,44.7v31.5h-1.6V44.7L126.3,76
			l32.2,32.2L190.7,76L159.3,44.7L159.3,44.7z"/>
	</g>
	<g>
		<path class="st1" d="M160.3,27.5L207,74.2h-14.5L160.3,42V27.5 M159.3,25.1v17.3l32.8,32.8h17.3L159.3,25.1L159.3,25.1z"/>
	</g>
	<g>
		<path class="st1" d="M207,77.8l-46.7,46.7V110l32.3-32.3H207 M209.4,76.8h-17.3l-32.8,32.8V127L209.4,76.8L209.4,76.8z"/>
	</g>
	<g>
		<path class="st1" d="M158.5,22l-54,54l54,54l54-54L158.5,22L158.5,22z M192.1,75.2l-32.8-32.8V25.1l50.1,50.1H192.1L192.1,75.2z
			 M107.5,75.2l50.1-50.1v17.3l-32.8,32.8H107.5L107.5,75.2z M157.7,76.2h1.6V44.7L190.7,76l-32.2,32.2L126.3,76l31.4-31.4V76.2
			L157.7,76.2z M209.4,76.8L159.3,127v-17.3l32.8-32.8L209.4,76.8L209.4,76.8z M157.7,127l-50.1-50.1h17.3l32.8,32.8V127L157.7,127z
			"/>
	</g>
</g>
<g class="st0">
	<g>
		<path class="st1" d="M52.8,22l-54,54l54,54l54-54L52.8,22L52.8,22z M86.5,75.2L53.6,42.4V25.1l50.1,50.1H86.5L86.5,75.2z
			 M1.9,75.2L52,25.1v17.3L19.2,75.2H1.9L1.9,75.2z M52,76.2h1.6V44.7L85,76l-32.2,32.2L20.6,76L52,44.7V76.2L52,76.2z M103.8,76.8
			L53.6,127v-17.3l32.8-32.8L103.8,76.8L103.8,76.8z M52,127L1.9,76.8h17.3L52,109.7V127L52,127z"/>
	</g>
</g>
<g class="st0">
	<g>
		<path class="st1" d="M177.2,1.8l32.3,32.3v14.5L162.8,1.8H177.2 M177.6,0.8h-17.3l50.1,50.1V33.6L177.6,0.8L177.6,0.8z"/>
	</g>
	<g>
		<path class="st1" d="M213.1-29l29,29l-30.8,30.8L180.5,0l29-29V0.1v1h1h1.6h1v-1V-29 M212.1-31.4V0.1h-1.6v-31.5L179.1,0
			l32.2,32.2L243.5,0L212.1-31.4L212.1-31.4z"/>
	</g>
	<g>
		<path class="st1" d="M211.3-54l-54,54l54,54l54-54L211.3-54L211.3-54z M244.9-0.8l-32.8-32.8v-17.3l50.1,50.1L244.9-0.8L244.9-0.8
			z M160.3-0.8l50.1-50.1v17.3L177.6-0.8H160.3L160.3-0.8z M210.5,0.1h1.6v-31.5L243.5,0l-32.2,32.2L179.1,0l31.4-31.4V0.1
			L210.5,0.1z M262.2,0.8l-50.1,50.1V33.6l32.8-32.8L262.2,0.8L262.2,0.8z M210.5,50.9L160.3,0.8h17.3l32.8,32.8L210.5,50.9
			L210.5,50.9z"/>
	</g>
</g>
<g class="st0">
	<g>
		<path class="st1" d="M107.4-29l29,29l-30.8,30.8L74.9,0l29-29V0.1v1h1h1.6h1v-1L107.4-29 M106.4-31.4V0.1h-1.6v-31.5L73.5,0
			l32.2,32.2L137.8,0L106.4-31.4L106.4-31.4z"/>
	</g>
	<g>
		<path class="st1" d="M154.2,1.8l-46.7,46.7V34.1l32.3-32.3L154.2,1.8 M156.6,0.8h-17.3l-32.8,32.8v17.3L156.6,0.8L156.6,0.8z"/>
	</g>
	<g>
		<path class="st1" d="M105.6-54l-54,54l54,54l54-54L105.6-54L105.6-54z M139.3-0.8l-32.8-32.8v-17.3l50.1,50.1L139.3-0.8L139.3-0.8
			z M54.7-0.8l50.1-50.1v17.3L72-0.8H54.7L54.7-0.8z M104.8,0.1h1.6v-31.5L137.8,0l-32.2,32.2L73.5,0l31.4-31.4L104.8,0.1L104.8,0.1
			z M156.6,0.8l-50.1,50.1V33.6l32.8-32.8L156.6,0.8L156.6,0.8z M104.8,50.9L54.7,0.8H72l32.8,32.8V50.9L104.8,50.9z"/>
	</g>
</g>
<g class="st0">
	<g>
		<path class="st1" d="M209.5,255.6v14.5l-32.3,32.3h-14.5L209.5,255.6 M210.5,253.2l-50.1,50.1h17.3l32.8-32.8V253.2L210.5,253.2z"
			/>
	</g>
	<g>
		<path class="st1" d="M213.1,275.2l29,29L211.3,335l-30.8-30.8l29-29v29.1v1h1h1.6h1v-1V275.2 M212.1,272.8v31.5h-1.6v-31.5
			l-31.4,31.4l32.2,32.2l32.2-32.2L212.1,272.8L212.1,272.8z"/>
	</g>
	<g>
		<path class="st1" d="M211.3,250.1l-54,54l54,54l54-54L211.3,250.1L211.3,250.1z M244.9,303.3l-32.8-32.8v-17.3l50.1,50.1H244.9
			L244.9,303.3z M160.3,303.3l50.1-50.1v17.3l-32.8,32.8L160.3,303.3L160.3,303.3z M210.5,304.3h1.6v-31.5l31.4,31.4l-32.2,32.2
			l-32.2-32.2l31.4-31.4V304.3L210.5,304.3z M262.2,304.9L212.1,355v-17.3l32.8-32.8L262.2,304.9L262.2,304.9z M210.5,355.1
			L160.4,305h17.3l32.8,32.8V355.1L210.5,355.1z"/>
	</g>
</g>
<g class="st0">
	<g>
		<path class="st1" d="M107.4,275.2l29,29L105.6,335l-30.8-30.8l29-29v29.1v1h1h1.6h1v-1L107.4,275.2 M106.4,272.8v31.5h-1.6v-31.5
			l-31.4,31.4l32.2,32.2l32.2-32.2L106.4,272.8L106.4,272.8z"/>
	</g>
	<g>
		<path class="st1" d="M107.4,255.6l46.7,46.7h-14.5L107.3,270L107.4,255.6 M106.4,253.2v17.3l32.8,32.8h17.3L106.4,253.2
			L106.4,253.2z"/>
	</g>
	<g>
		<path class="st1" d="M105.6,250.1l-54,54l54,54l54-54L105.6,250.1L105.6,250.1z M139.3,303.3l-32.8-32.8v-17.3l50.1,50.1H139.3
			L139.3,303.3z M54.7,303.3l50.1-50.1v17.3L72,303.3H54.7L54.7,303.3z M104.8,304.3h1.6v-31.5l31.4,31.4l-32.2,32.2l-32.2-32.2
			l31.4-31.4L104.8,304.3L104.8,304.3z M156.6,304.9L106.5,355v-17.3l32.8-32.8L156.6,304.9L156.6,304.9z M104.8,355.1L54.7,305H72
			l32.8,32.8V355.1L104.8,355.1z"/>
	</g>
</g>
<g class="st0">
	<g>
		<path class="st1" d="M264.1,174.1l-54,54l54,54l54-54L264.1,174.1L264.1,174.1z M297.8,227.3L265,194.5v-17.3l50.1,50.1
			L297.8,227.3L297.8,227.3z M213.2,227.3l50.1-50.1v17.3l-32.8,32.8L213.2,227.3L213.2,227.3z M263.3,228.2h1.6v-31.5l31.4,31.4
			l-32.2,32.2l-32.2-32.2l31.4-31.4V228.2L263.3,228.2z M315.1,228.9L264.9,279v-17.3l32.8-32.8L315.1,228.9L315.1,228.9z
			 M263.3,279l-50.1-50.1h17.3l32.8,32.8V279L263.3,279z"/>
	</g>
</g>
<g class="st0">
	<g>
		<path class="st1" d="M156.7,179.6V194l-32.3,32.3h-14.5L156.7,179.6 M157.7,177.2l-50.1,50.1h17.3l32.8-32.8V177.2L157.7,177.2z"
			/>
	</g>
	<g>
		<path class="st1" d="M124.4,229.9l32.3,32.3v14.5L110,230L124.4,229.9 M124.8,228.9h-17.3l50.1,50.1v-17.3L124.8,228.9
			L124.8,228.9z"/>
	</g>
	<g>
		<path class="st1" d="M160.3,199.1l29,29l-30.8,30.8l-30.8-30.8l29-29v29.1v1h1h1.6h1v-1V199.1 M159.3,196.7v31.5h-1.6v-31.5
			l-31.4,31.4l32.2,32.2l32.2-32.2L159.3,196.7L159.3,196.7z"/>
	</g>
	<g>
		<path class="st1" d="M160.3,179.6l46.7,46.7h-14.5L160.3,194V179.6 M159.3,177.2v17.3l32.8,32.8h17.3L159.3,177.2L159.3,177.2z"/>
	</g>
	<g>
		<path class="st1" d="M207,229.9l-46.7,46.7v-14.5l32.3-32.3L207,229.9 M209.4,228.9h-17.3l-32.8,32.8V279L209.4,228.9L209.4,228.9
			z"/>
	</g>
	<g>
		<path class="st1" d="M158.5,174.1l-54,54l54,54l54-54L158.5,174.1L158.5,174.1z M192.1,227.3l-32.8-32.8v-17.3l50.1,50.1
			L192.1,227.3L192.1,227.3z M107.5,227.3l50.1-50.1v17.3l-32.8,32.8L107.5,227.3L107.5,227.3z M157.7,228.2h1.6v-31.5l31.4,31.4
			l-32.2,32.2l-32.2-32.2l31.4-31.4V228.2L157.7,228.2z M209.4,228.9L159.3,279v-17.3l32.8-32.8L209.4,228.9L209.4,228.9z
			 M157.7,279l-50.1-50.1h17.3l32.8,32.8V279L157.7,279z"/>
	</g>
</g>
<g class="st0">
	<g>
		<path class="st1" d="M52.8,174.1l-54,54l54,54l54-54L52.8,174.1L52.8,174.1z M86.5,227.3l-32.8-32.8v-17.3l50.1,50.1L86.5,227.3
			L86.5,227.3z M1.9,227.3L52,177.2v17.3l-32.8,32.8H1.9L1.9,227.3z M52,228.2h1.6v-31.5L85,228.1l-32.2,32.2l-32.2-32.2L52,196.7
			V228.2L52,228.2z M103.8,228.9L53.6,279v-17.3l32.8-32.8L103.8,228.9L103.8,228.9z M52,279L1.9,228.9h17.3L52,261.7V279L52,279z"
			/>
	</g>
</g>
<g class="st0">
	<g>
		<path class="st1" d="M177.2,153.9l32.3,32.3v14.5L162.8,154h14.4 M177.6,152.9h-17.3l50.1,50.1v-17.3L177.6,152.9L177.6,152.9z"/>
	</g>
	<g>
		<path class="st1" d="M213.1,123.1l29,29l-30.8,30.8l-30.8-30.8l29-29v29.1v1h1h1.6h1v-1V123.1 M212.1,120.7v31.5h-1.6v-31.5
			l-31.4,31.4l32.2,32.2l32.2-32.2L212.1,120.7L212.1,120.7z"/>
	</g>
	<g>
		<path class="st1" d="M211.3,98.1l-54,54l54,54l54-54L211.3,98.1L211.3,98.1z M244.9,151.3l-32.8-32.8v-17.3l50.1,50.1L244.9,151.3
			L244.9,151.3z M160.3,151.3l50.1-50.1v17.3l-32.8,32.8H160.3L160.3,151.3z M210.5,152.2h1.6v-31.5l31.4,31.4l-32.2,32.2
			l-32.2-32.2l31.4-31.4V152.2L210.5,152.2z M262.2,152.9L212.1,203v-17.3l32.8-32.8H262.2L262.2,152.9z M210.5,203l-50.1-50.1h17.3
			l32.8,32.8V203L210.5,203z"/>
	</g>
</g>
<g class="st0">
	<g>
		<path class="st1" d="M107.4,123.1l29,29l-30.8,30.8l-30.8-30.8l29-29v29.1v1h1h1.6h1v-1L107.4,123.1 M106.4,120.7v31.5h-1.6v-31.5
			l-31.4,31.4l32.2,32.2l32.2-32.2L106.4,120.7L106.4,120.7z"/>
	</g>
	<g>
		<path class="st1" d="M154.2,153.9l-46.7,46.7v-14.5l32.3-32.3h14.4 M156.6,152.9h-17.3l-32.8,32.8V203L156.6,152.9L156.6,152.9z"
			/>
	</g>
	<g>
		<path class="st1" d="M105.6,98.1l-54,54l54,54l54-54L105.6,98.1L105.6,98.1z M139.3,151.3l-32.8-32.8v-17.3l50.1,50.1L139.3,151.3
			L139.3,151.3z M54.7,151.3l50.1-50.1v17.3L72,151.3H54.7L54.7,151.3z M104.8,152.2h1.6v-31.5l31.4,31.4l-32.2,32.2l-32.2-32.2
			l31.4-31.4L104.8,152.2L104.8,152.2z M156.6,152.9L106.4,203v-17.3l32.8-32.8H156.6L156.6,152.9z M104.8,203l-50.1-50.1H72
			l32.8,32.8V203L104.8,203z"/>
	</g>
</g>
<g class="st0">
	<g>
		<path class="st1" d="M209.5,407.7v14.5l-32.3,32.3h-14.5L209.5,407.7 M210.5,405.3l-50.1,50.1h17.3l32.8-32.8V405.3L210.5,405.3z"
			/>
	</g>
	<g>
		<path class="st1" d="M213.1,427.2l29,29L211.3,487l-30.8-30.8l29-29v29.1v1h1h1.6h1v-1V427.2 M212.1,424.8v31.5h-1.6v-31.5
			l-31.4,31.4l32.2,32.2l32.2-32.2L212.1,424.8L212.1,424.8z"/>
	</g>
	<g>
		<path class="st1" d="M211.3,402.2l-54,54l54,54l54-54L211.3,402.2L211.3,402.2z M244.9,455.4l-32.8-32.8v-17.3l50.1,50.1
			L244.9,455.4L244.9,455.4z M160.3,455.4l50.1-50.1v17.3l-32.8,32.8L160.3,455.4L160.3,455.4z M210.5,456.3h1.6v-31.5l31.4,31.4
			l-32.2,32.2l-32.2-32.2l31.4-31.4V456.3L210.5,456.3z M262.2,457l-50.1,50.1v-17.3l32.8-32.8L262.2,457L262.2,457z M210.5,507.2
			L160.3,457h17.3l32.8,32.8L210.5,507.2L210.5,507.2z"/>
	</g>
</g>
<g class="st0">
	<g>
		<path class="st1" d="M107.4,427.2l29,29L105.6,487l-30.8-30.8l29-29v29.1v1h1h1.6h1v-1V427.2 M106.4,424.8v31.5h-1.6v-31.5
			l-31.4,31.4l32.2,32.2l32.2-32.2L106.4,424.8L106.4,424.8z"/>
	</g>
	<g>
		<path class="st1" d="M107.4,407.7l46.7,46.7h-14.5l-32.3-32.3L107.4,407.7 M106.4,405.3v17.3l32.8,32.8h17.3L106.4,405.3
			L106.4,405.3z"/>
	</g>
	<g>
		<path class="st1" d="M105.6,402.2l-54,54l54,54l54-54L105.6,402.2L105.6,402.2z M139.3,455.4l-32.8-32.8v-17.3l50.1,50.1
			L139.3,455.4L139.3,455.4z M54.7,455.4l50.1-50.1v17.3L72,455.4H54.7L54.7,455.4z M104.8,456.3h1.6v-31.5l31.4,31.4l-32.2,32.2
			l-32.2-32.2l31.4-31.4L104.8,456.3L104.8,456.3z M156.6,457l-50.1,50.1v-17.3l32.8-32.8L156.6,457L156.6,457z M104.8,507.2
			L54.7,457H72l32.8,32.8V507.2L104.8,507.2z"/>
	</g>
</g>
<g class="st0">
	<g>
		<path class="st1" d="M264.1,326.2l-54,54l54,54l54-54L264.1,326.2L264.1,326.2z M297.8,379.4L265,346.6v-17.3l50.1,50.1
			L297.8,379.4L297.8,379.4z M213.2,379.4l50.1-50.1v17.3l-32.8,32.8L213.2,379.4L213.2,379.4z M263.3,380.3h1.6v-31.5l31.4,31.4
			l-32.2,32.2l-32.2-32.2l31.4-31.4V380.3L263.3,380.3z M315.1,381L265,431.1v-17.3l32.8-32.8L315.1,381L315.1,381z M263.3,431.1
			L213.2,381h17.3l32.8,32.8V431.1L263.3,431.1z"/>
	</g>
</g>
<g class="st0">
	<g>
		<path class="st1" d="M156.7,331.6v14.5l-32.3,32.3h-14.5L156.7,331.6 M157.7,329.2l-50.1,50.1h17.3l32.8-32.8V329.2L157.7,329.2z"
			/>
	</g>
	<g>
		<path class="st1" d="M124.4,382l32.3,32.3v14.5L109.9,382H124.4 M124.8,381h-17.3l50.1,50.1v-17.3L124.8,381L124.8,381z"/>
	</g>
	<g>
		<path class="st1" d="M160.3,351.2l29,29L158.5,411l-30.8-30.8l29-29v29.1v1h1h1.6h1v-1V351.2 M159.3,348.8v31.5h-1.6v-31.5
			l-31.4,31.4l32.2,32.2l32.2-32.2L159.3,348.8L159.3,348.8z"/>
	</g>
	<g>
		<path class="st1" d="M160.3,331.6l46.7,46.7h-14.5L160.2,346v-14.4 M159.3,329.2v17.3l32.8,32.8h17.3L159.3,329.2L159.3,329.2z"/>
	</g>
	<g>
		<path class="st1" d="M207,382l-46.7,46.7v-14.5l32.3-32.3L207,382 M209.4,381h-17.3l-32.8,32.8v17.3L209.4,381L209.4,381z"/>
	</g>
	<g>
		<path class="st1" d="M158.5,326.2l-54,54l54,54l54-54L158.5,326.2L158.5,326.2z M192.1,379.4l-32.8-32.8v-17.3l50.1,50.1
			L192.1,379.4L192.1,379.4z M107.5,379.4l50.1-50.1v17.3l-32.8,32.8L107.5,379.4L107.5,379.4z M157.7,380.3h1.6v-31.5l31.4,31.4
			l-32.2,32.2l-32.2-32.2l31.4-31.4V380.3L157.7,380.3z M209.4,381l-50.1,50.1v-17.3l32.8-32.8L209.4,381L209.4,381z M157.7,431.1
			L107.5,381h17.3l32.8,32.8L157.7,431.1L157.7,431.1z"/>
	</g>
</g>
<g class="st0">
	<g>
		<path class="st1" d="M52.8,326.2l-54,54l54,54l54-54L52.8,326.2L52.8,326.2z M86.5,379.4l-32.8-32.8v-17.3l50.1,50.1L86.5,379.4
			L86.5,379.4z M1.9,379.4L52,329.2v17.3l-32.8,32.8H1.9V379.4z M52,380.3h1.6v-31.5L85,380.2l-32.2,32.2l-32.2-32.2L52,348.8V380.3
			L52,380.3z M103.8,381l-50.1,50.1v-17.3L86.5,381H103.8L103.8,381z M52,431.1L1.9,381h17.3L52,413.8V431.1L52,431.1z"/>
	</g>
</g>
<g class="st0">
	<g>
		<path class="st1" d="M177.2,305.9l32.3,32.3v14.5L162.8,306L177.2,305.9 M177.6,304.9h-17.3l50.1,50.1v-17.3L177.6,304.9
			L177.6,304.9z"/>
	</g>
	<g>
		<path class="st1" d="M213.1,275.2l29,29L211.3,335l-30.8-30.8l29-29v29.1v1h1h1.6h1v-1V275.2 M212.1,272.8v31.5h-1.6v-31.5
			l-31.4,31.4l32.2,32.2l32.2-32.2L212.1,272.8L212.1,272.8z"/>
	</g>
	<g>
		<path class="st1" d="M211.3,250.1l-54,54l54,54l54-54L211.3,250.1L211.3,250.1z M244.9,303.3l-32.8-32.8v-17.3l50.1,50.1H244.9
			L244.9,303.3z M160.3,303.3l50.1-50.1v17.3l-32.8,32.8L160.3,303.3L160.3,303.3z M210.5,304.3h1.6v-31.5l31.4,31.4l-32.2,32.2
			l-32.2-32.2l31.4-31.4V304.3L210.5,304.3z M262.2,304.9L212.1,355v-17.3l32.8-32.8L262.2,304.9L262.2,304.9z M210.5,355.1
			L160.4,305h17.3l32.8,32.8V355.1L210.5,355.1z"/>
	</g>
</g>
<g class="st0">
	<g>
		<path class="st1" d="M107.4,275.2l29,29L105.6,335l-30.8-30.8l29-29v29.1v1h1h1.6h1v-1L107.4,275.2 M106.4,272.8v31.5h-1.6v-31.5
			l-31.4,31.4l32.2,32.2l32.2-32.2L106.4,272.8L106.4,272.8z"/>
	</g>
	<g>
		<path class="st1" d="M154.2,305.9l-46.7,46.7v-14.5l32.3-32.3L154.2,305.9 M156.6,304.9h-17.3l-32.8,32.8V355L156.6,304.9
			L156.6,304.9z"/>
	</g>
	<g>
		<path class="st1" d="M105.6,250.1l-54,54l54,54l54-54L105.6,250.1L105.6,250.1z M139.3,303.3l-32.8-32.8v-17.3l50.1,50.1H139.3
			L139.3,303.3z M54.7,303.3l50.1-50.1v17.3L72,303.3H54.7L54.7,303.3z M104.8,304.3h1.6v-31.5l31.4,31.4l-32.2,32.2l-32.2-32.2
			l31.4-31.4L104.8,304.3L104.8,304.3z M156.6,304.9L106.5,355v-17.3l32.8-32.8L156.6,304.9L156.6,304.9z M104.8,355.1L54.7,305H72
			l32.8,32.8V355.1L104.8,355.1z"/>
	</g>
</g>
<g class="st0">
	<g>
		<path class="st1" d="M103.8,103.5V118l-32.3,32.3H57.1L103.8,103.5 M104.8,101.1l-50.1,50.1H72l32.8-32.8V101.1L104.8,101.1z"/>
	</g>
	<g>
		<path class="st1" d="M107.4,123.1l29,29l-30.8,30.8l-30.8-30.8l29-29v29.1v1h1h1.6h1v-1L107.4,123.1 M106.4,120.7v31.5h-1.6v-31.5
			l-31.4,31.4l32.2,32.2l32.2-32.2L106.4,120.7L106.4,120.7z"/>
	</g>
	<g>
		<path class="st1" d="M105.6,98.1l-54,54l54,54l54-54L105.6,98.1L105.6,98.1z M139.3,151.3l-32.8-32.8v-17.3l50.1,50.1L139.3,151.3
			L139.3,151.3z M54.7,151.3l50.1-50.1v17.3L72,151.3H54.7L54.7,151.3z M104.8,152.2h1.6v-31.5l31.4,31.4l-32.2,32.2l-32.2-32.2
			l31.4-31.4L104.8,152.2L104.8,152.2z M156.6,152.9L106.4,203v-17.3l32.8-32.8H156.6L156.6,152.9z M104.8,203l-50.1-50.1H72
			l32.8,32.8V203L104.8,203z"/>
	</g>
</g>
<g class="st0">
	<g>
		<path class="st1" d="M1.8,123.1l29,29L0,182.8L-30.8,152l29-29v29.1v1h1h1.6h1v-1L1.8,123.1 M0.8,120.7v31.5h-1.6v-31.5
			l-31.4,31.4L0,184.2L32.2,152L0.8,120.7L0.8,120.7z"/>
	</g>
	<g>
		<path class="st1" d="M1.8,103.5l46.7,46.7H34.1L1.8,118V103.5 M0.8,101.1v17.3l32.8,32.8h17.3L0.8,101.1L0.8,101.1z"/>
	</g>
	<g>
		<path class="st1" d="M0,98.1l-54,54l54,54l54-54L0,98.1L0,98.1z M33.6,151.3L0.8,118.4v-17.3l50.1,50.1L33.6,151.3L33.6,151.3z
			 M-50.9,151.3l50.1-50.1v17.3l-32.8,32.8H-50.9L-50.9,151.3z M-0.8,152.2h1.6v-31.5l31.4,31.4L0,184.2L-32.2,152l31.4-31.4
			L-0.8,152.2L-0.8,152.2z M50.9,152.9L0.8,203v-17.3l32.8-32.8H50.9L50.9,152.9z M-0.8,203l-50.1-50.1h17.3l32.8,32.8L-0.8,203
			L-0.8,203z"/>
	</g>
</g>
<g class="st0">
	<g>
		<path class="st1" d="M158.5,22l-54,54l54,54l54-54L158.5,22L158.5,22z M192.1,75.2l-32.8-32.8V25.1l50.1,50.1H192.1L192.1,75.2z
			 M107.5,75.2l50.1-50.1v17.3l-32.8,32.8H107.5L107.5,75.2z M157.7,76.2h1.6V44.7L190.7,76l-32.2,32.2L126.3,76l31.4-31.4V76.2
			L157.7,76.2z M209.4,76.8L159.3,127v-17.3l32.8-32.8L209.4,76.8L209.4,76.8z M157.7,127l-50.1-50.1h17.3l32.8,32.8V127L157.7,127z
			"/>
	</g>
</g>
<g class="st0">
	<g>
		<path class="st1" d="M51,27.5V42L18.8,74.2H4.3L51,27.5 M52,25.1L1.9,75.2h17.3L52,42.4V25.1L52,25.1z"/>
	</g>
	<g>
		<path class="st1" d="M18.8,77.8L51,110.1v14.5L4.3,77.8H18.8 M19.2,76.8H1.9L52,127v-17.3L19.2,76.8L19.2,76.8z"/>
	</g>
	<g>
		<path class="st1" d="M54.6,47.1l29,29l-30.8,30.8L22.1,76l29-29v29.1v1h1h1.6h1v-1L54.6,47.1 M53.6,44.7v31.5H52V44.7L20.6,76
			l32.2,32.2L85,76L53.6,44.7L53.6,44.7z"/>
	</g>
	<g>
		<path class="st1" d="M54.6,27.5l46.7,46.7H86.9L54.6,42V27.5 M53.6,25.1v17.3l32.8,32.8h17.3L53.6,25.1L53.6,25.1z"/>
	</g>
	<g>
		<path class="st1" d="M101.4,77.8l-46.7,46.7V110L87,77.7h14.4 M103.8,76.8H86.5l-32.8,32.8V127L103.8,76.8L103.8,76.8z"/>
	</g>
	<g>
		<path class="st1" d="M52.8,22l-54,54l54,54l54-54L52.8,22L52.8,22z M86.5,75.2L53.6,42.4V25.1l50.1,50.1H86.5L86.5,75.2z
			 M1.9,75.2L52,25.1v17.3L19.2,75.2H1.9L1.9,75.2z M52,76.2h1.6V44.7L85,76l-32.2,32.2L20.6,76L52,44.7V76.2L52,76.2z M103.8,76.8
			L53.6,127v-17.3l32.8-32.8L103.8,76.8L103.8,76.8z M52,127L1.9,76.8h17.3L52,109.7V127L52,127z"/>
	</g>
</g>
<g class="st0">
	<g>
		<path class="st1" d="M-52.8,22l-54,54l54,54l54-54L-52.8,22L-52.8,22z M-19.2,75.2L-52,42.4V25.1l50.1,50.1H-19.2L-19.2,75.2z
			 M-103.8,75.2l50.1-50.1v17.3l-32.8,32.8H-103.8L-103.8,75.2z M-53.6,76.2h1.6V44.7L-20.6,76l-32.2,32.2L-85,76l31.4-31.4V76.2
			L-53.6,76.2z M-1.9,76.8L-52,127v-17.3l32.8-32.8L-1.9,76.8L-1.9,76.8z M-53.6,127l-50.1-50.1h17.3l32.8,32.8L-53.6,127L-53.6,127
			z"/>
	</g>
</g>
<g class="st0">
	<g>
		<path class="st1" d="M71.6,1.8l32.3,32.3v14.5L57.1,1.8H71.6 M72,0.8H54.7l50.1,50.1V33.6L72,0.8L72,0.8z"/>
	</g>
	<g>
		<path class="st1" d="M107.4-29l29,29l-30.8,30.8L74.9,0l29-29V0.1v1h1h1.6h1v-1L107.4-29 M106.4-31.4V0.1h-1.6v-31.5L73.5,0
			l32.2,32.2L137.8,0L106.4-31.4L106.4-31.4z"/>
	</g>
	<g>
		<path class="st1" d="M105.6-54l-54,54l54,54l54-54L105.6-54L105.6-54z M139.3-0.8l-32.8-32.8v-17.3l50.1,50.1L139.3-0.8L139.3-0.8
			z M54.7-0.8l50.1-50.1v17.3L72-0.8H54.7L54.7-0.8z M104.8,0.1h1.6v-31.5L137.8,0l-32.2,32.2L73.5,0l31.4-31.4L104.8,0.1L104.8,0.1
			z M156.6,0.8l-50.1,50.1V33.6l32.8-32.8L156.6,0.8L156.6,0.8z M104.8,50.9L54.7,0.8H72l32.8,32.8V50.9L104.8,50.9z"/>
	</g>
</g>
<g class="st0">
	<g>
		<path class="st1" d="M1.8-29l29,29L0,30.8L-30.8,0l29-29V0.1v1h1h1.6h1v-1L1.8-29 M0.8-31.4V0.1h-1.6v-31.5L-32.2,0L0,32.2L32.2,0
			L0.8-31.4L0.8-31.4z"/>
	</g>
	<g>
		<path class="st1" d="M48.5,1.8L1.8,48.5V34.1L34.1,1.8H48.5 M50.9,0.8H33.6L0.8,33.6v17.3L50.9,0.8L50.9,0.8z"/>
	</g>
	<g>
		<path class="st1" d="M0-54L-54,0L0,54L54,0L0-54L0-54z M33.6-0.8L0.8-33.6v-17.3L50.9-0.8H33.6L33.6-0.8z M-50.9-0.8l50.1-50.1
			v17.3L-33.6-0.8H-50.9L-50.9-0.8z M-0.8,0.1h1.6v-31.5L32.2,0L0,32.2L-32.2,0l31.4-31.4L-0.8,0.1L-0.8,0.1z M50.9,0.8L0.8,50.9
			V33.6L33.6,0.8H50.9L50.9,0.8z M-0.8,50.9L-50.9,0.8h17.3l32.8,32.8L-0.8,50.9L-0.8,50.9z"/>
	</g>
</g>
<g class="st0">
	<g>
		<path class="st1" d="M103.8,255.6v14.5l-32.3,32.3H57.1L103.8,255.6 M104.8,253.2l-50.1,50.1H72l32.8-32.8V253.2L104.8,253.2z"/>
	</g>
	<g>
		<path class="st1" d="M107.4,275.2l29,29L105.6,335l-30.8-30.8l29-29v29.1v1h1h1.6h1v-1L107.4,275.2 M106.4,272.8v31.5h-1.6v-31.5
			l-31.4,31.4l32.2,32.2l32.2-32.2L106.4,272.8L106.4,272.8z"/>
	</g>
	<g>
		<path class="st1" d="M105.6,250.1l-54,54l54,54l54-54L105.6,250.1L105.6,250.1z M139.3,303.3l-32.8-32.8v-17.3l50.1,50.1H139.3
			L139.3,303.3z M54.7,303.3l50.1-50.1v17.3L72,303.3H54.7L54.7,303.3z M104.8,304.3h1.6v-31.5l31.4,31.4l-32.2,32.2l-32.2-32.2
			l31.4-31.4L104.8,304.3L104.8,304.3z M156.6,304.9L106.5,355v-17.3l32.8-32.8L156.6,304.9L156.6,304.9z M104.8,355.1L54.7,305H72
			l32.8,32.8V355.1L104.8,355.1z"/>
	</g>
</g>
<g class="st0">
	<g>
		<path class="st1" d="M1.8,275.2l29,29L0,334.9l-30.8-30.8l29-29v29.1v1h1h1.6h1v-1L1.8,275.2 M0.8,272.8v31.5h-1.6v-31.5
			l-31.4,31.4L0,336.3l32.2-32.2L0.8,272.8L0.8,272.8z"/>
	</g>
	<g>
		<path class="st1" d="M1.8,255.6l46.7,46.7H34.1L1.8,270.1V255.6 M0.8,253.2v17.3l32.8,32.8h17.3L0.8,253.2L0.8,253.2z"/>
	</g>
	<g>
		<path class="st1" d="M0,250.1l-54,54l54,54l54-54L0,250.1L0,250.1z M33.6,303.3L0.8,270.5v-17.3l50.1,50.1H33.6L33.6,303.3z
			 M-50.9,303.3l50.1-50.1v17.3l-32.8,32.8L-50.9,303.3L-50.9,303.3z M-0.8,304.3h1.6v-31.5l31.4,31.4L0,336.3l-32.2-32.2l31.4-31.4
			L-0.8,304.3L-0.8,304.3z M50.9,304.9L0.8,355.1v-17.3L33.6,305h17.3V304.9z M-0.8,355.1L-50.9,305h17.3l32.8,32.8L-0.8,355.1
			L-0.8,355.1z"/>
	</g>
</g>
<g class="st0">
	<g>
		<path class="st1" d="M158.5,174.1l-54,54l54,54l54-54L158.5,174.1L158.5,174.1z M192.1,227.3l-32.8-32.8v-17.3l50.1,50.1
			L192.1,227.3L192.1,227.3z M107.5,227.3l50.1-50.1v17.3l-32.8,32.8L107.5,227.3L107.5,227.3z M157.7,228.2h1.6v-31.5l31.4,31.4
			l-32.2,32.2l-32.2-32.2l31.4-31.4V228.2L157.7,228.2z M209.4,228.9L159.3,279v-17.3l32.8-32.8L209.4,228.9L209.4,228.9z
			 M157.7,279l-50.1-50.1h17.3l32.8,32.8V279L157.7,279z"/>
	</g>
</g>
<g class="st0">
	<g>
		<path class="st1" d="M51,179.6V194l-32.3,32.3H4.3L51,179.6 M52,177.2L1.9,227.3h17.3L52,194.5V177.2L52,177.2z"/>
	</g>
	<g>
		<path class="st1" d="M18.8,229.9L51,262.2v14.5L4.3,229.9H18.8 M19.2,228.9H1.9L52,279v-17.3L19.2,228.9L19.2,228.9z"/>
	</g>
	<g>
		<path class="st1" d="M54.6,199.1l29,29l-30.8,30.8L22,228.1l29-29v29.1v1h1h1.6h1v-1V199.1 M53.6,196.7v31.5H52v-31.5l-31.4,31.4
			l32.2,32.2L85,228.1L53.6,196.7L53.6,196.7z"/>
	</g>
	<g>
		<path class="st1" d="M54.6,179.6l46.7,46.7H86.9L54.6,194V179.6 M53.6,177.2v17.3l32.8,32.8h17.3L53.6,177.2L53.6,177.2z"/>
	</g>
	<g>
		<path class="st1" d="M101.4,229.9l-46.7,46.7v-14.5L87,229.8L101.4,229.9 M103.8,228.9H86.5l-32.8,32.8V279L103.8,228.9
			L103.8,228.9z"/>
	</g>
	<g>
		<path class="st1" d="M52.8,174.1l-54,54l54,54l54-54L52.8,174.1L52.8,174.1z M86.5,227.3l-32.8-32.8v-17.3l50.1,50.1L86.5,227.3
			L86.5,227.3z M1.9,227.3L52,177.2v17.3l-32.8,32.8H1.9L1.9,227.3z M52,228.2h1.6v-31.5L85,228.1l-32.2,32.2l-32.2-32.2L52,196.7
			V228.2L52,228.2z M103.8,228.9L53.6,279v-17.3l32.8-32.8L103.8,228.9L103.8,228.9z M52,279L1.9,228.9h17.3L52,261.7V279L52,279z"
			/>
	</g>
</g>
<g class="st0">
	<g>
		<path class="st1" d="M-52.8,174.1l-54,54l54,54l54-54L-52.8,174.1L-52.8,174.1z M-19.2,227.3L-52,194.5v-17.3l50.1,50.1
			L-19.2,227.3L-19.2,227.3z M-103.8,227.3l50.1-50.1v17.3l-32.8,32.8L-103.8,227.3L-103.8,227.3z M-53.6,228.2h1.6v-31.5l31.4,31.4
			l-32.2,32.2L-85,228.1l31.4-31.4V228.2L-53.6,228.2z M-1.9,228.9L-52,279v-17.3l32.8-32.8L-1.9,228.9L-1.9,228.9z M-53.6,279
			l-50.1-50.1h17.3l32.8,32.8L-53.6,279L-53.6,279z"/>
	</g>
</g>
<g class="st0">
	<g>
		<path class="st1" d="M71.6,153.9l32.3,32.3v14.5L57.2,154h14.4 M72,152.9H54.7l50.1,50.1v-17.3L72,152.9L72,152.9z"/>
	</g>
	<g>
		<path class="st1" d="M107.4,123.1l29,29l-30.8,30.8l-30.8-30.8l29-29v29.1v1h1h1.6h1v-1L107.4,123.1 M106.4,120.7v31.5h-1.6v-31.5
			l-31.4,31.4l32.2,32.2l32.2-32.2L106.4,120.7L106.4,120.7z"/>
	</g>
	<g>
		<path class="st1" d="M105.6,98.1l-54,54l54,54l54-54L105.6,98.1L105.6,98.1z M139.3,151.3l-32.8-32.8v-17.3l50.1,50.1L139.3,151.3
			L139.3,151.3z M54.7,151.3l50.1-50.1v17.3L72,151.3H54.7L54.7,151.3z M104.8,152.2h1.6v-31.5l31.4,31.4l-32.2,32.2l-32.2-32.2
			l31.4-31.4L104.8,152.2L104.8,152.2z M156.6,152.9L106.4,203v-17.3l32.8-32.8H156.6L156.6,152.9z M104.8,203l-50.1-50.1H72
			l32.8,32.8V203L104.8,203z"/>
	</g>
</g>
<g class="st0">
	<g>
		<path class="st1" d="M1.8,123.1l29,29L0,182.8L-30.8,152l29-29v29.1v1h1h1.6h1v-1L1.8,123.1 M0.8,120.7v31.5h-1.6v-31.5
			l-31.4,31.4L0,184.2L32.2,152L0.8,120.7L0.8,120.7z"/>
	</g>
	<g>
		<path class="st1" d="M48.5,153.9L1.8,200.6v-14.5l32.3-32.3L48.5,153.9 M50.9,152.9H33.6L0.8,185.7V203L50.9,152.9L50.9,152.9z"/>
	</g>
	<g>
		<path class="st1" d="M0,98.1l-54,54l54,54l54-54L0,98.1L0,98.1z M33.6,151.3L0.8,118.4v-17.3l50.1,50.1L33.6,151.3L33.6,151.3z
			 M-50.9,151.3l50.1-50.1v17.3l-32.8,32.8H-50.9L-50.9,151.3z M-0.8,152.2h1.6v-31.5l31.4,31.4L0,184.2L-32.2,152l31.4-31.4
			L-0.8,152.2L-0.8,152.2z M50.9,152.9L0.8,203v-17.3l32.8-32.8H50.9L50.9,152.9z M-0.8,203l-50.1-50.1h17.3l32.8,32.8L-0.8,203
			L-0.8,203z"/>
	</g>
</g>
<g class="st0">
	<g>
		<path class="st1" d="M103.8,407.7v14.5l-32.3,32.3H57.1L103.8,407.7 M104.8,405.3l-50.1,50.1H72l32.8-32.8V405.3L104.8,405.3z"/>
	</g>
	<g>
		<path class="st1" d="M107.4,427.2l29,29L105.6,487l-30.8-30.8l29-29v29.1v1h1h1.6h1v-1V427.2 M106.4,424.8v31.5h-1.6v-31.5
			l-31.4,31.4l32.2,32.2l32.2-32.2L106.4,424.8L106.4,424.8z"/>
	</g>
	<g>
		<path class="st1" d="M105.6,402.2l-54,54l54,54l54-54L105.6,402.2L105.6,402.2z M139.3,455.4l-32.8-32.8v-17.3l50.1,50.1
			L139.3,455.4L139.3,455.4z M54.7,455.4l50.1-50.1v17.3L72,455.4H54.7L54.7,455.4z M104.8,456.3h1.6v-31.5l31.4,31.4l-32.2,32.2
			l-32.2-32.2l31.4-31.4L104.8,456.3L104.8,456.3z M156.6,457l-50.1,50.1v-17.3l32.8-32.8L156.6,457L156.6,457z M104.8,507.2
			L54.7,457H72l32.8,32.8V507.2L104.8,507.2z"/>
	</g>
</g>
<g class="st0">
	<g>
		<path class="st1" d="M1.8,427.2l29,29L0,487l-30.8-30.8l29-29v29.1v1h1h1.6h1v-1L1.8,427.2 M0.8,424.8v31.5h-1.6v-31.5l-31.4,31.4
			L0,488.4l32.2-32.2L0.8,424.8L0.8,424.8z"/>
	</g>
	<g>
		<path class="st1" d="M1.8,407.7l46.7,46.7H34.1L1.8,422.1V407.7 M0.8,405.3v17.3l32.8,32.8h17.3L0.8,405.3L0.8,405.3z"/>
	</g>
	<g>
		<path class="st1" d="M0,402.2l-54,54l54,54l54-54L0,402.2L0,402.2z M33.6,455.4L0.8,422.6v-17.3l50.1,50.1L33.6,455.4L33.6,455.4z
			 M-50.9,455.4l50.1-50.1v17.3l-32.8,32.8L-50.9,455.4L-50.9,455.4z M-0.8,456.3h1.6v-31.5l31.4,31.4L0,488.4l-32.2-32.2l31.4-31.4
			L-0.8,456.3L-0.8,456.3z M50.9,457L0.8,507.2v-17.3L33.6,457H50.9L50.9,457z M-0.8,507.2L-50.9,457h17.3l32.8,32.8L-0.8,507.2
			L-0.8,507.2z"/>
	</g>
</g>
<g class="st0">
	<g>
		<path class="st1" d="M158.5,326.2l-54,54l54,54l54-54L158.5,326.2L158.5,326.2z M192.1,379.4l-32.8-32.8v-17.3l50.1,50.1
			L192.1,379.4L192.1,379.4z M107.5,379.4l50.1-50.1v17.3l-32.8,32.8L107.5,379.4L107.5,379.4z M157.7,380.3h1.6v-31.5l31.4,31.4
			l-32.2,32.2l-32.2-32.2l31.4-31.4V380.3L157.7,380.3z M209.4,381l-50.1,50.1v-17.3l32.8-32.8L209.4,381L209.4,381z M157.7,431.1
			L107.5,381h17.3l32.8,32.8L157.7,431.1L157.7,431.1z"/>
	</g>
</g>
<g class="st0">
	<g>
		<path class="st1" d="M51,331.6v14.5l-32.3,32.3H4.3L51,331.6 M52,329.2L1.9,379.4h17.3L52,346.5V329.2L52,329.2z"/>
	</g>
	<g>
		<path class="st1" d="M18.8,382L51,414.2v14.5L4.3,382H18.8 M19.2,381H1.9L52,431.1v-17.3L19.2,381L19.2,381z"/>
	</g>
	<g>
		<path class="st1" d="M54.6,351.2l29,29L52.8,411L22,380.2l29-29v29.1v1h1h1.6h1v-1V351.2 M53.6,348.8v31.5H52v-31.5l-31.4,31.4
			l32.2,32.2L85,380.2L53.6,348.8L53.6,348.8z"/>
	</g>
	<g>
		<path class="st1" d="M54.6,331.6l46.7,46.7H86.9L54.6,346L54.6,331.6 M53.6,329.2v17.3l32.8,32.8h17.3L53.6,329.2L53.6,329.2z"/>
	</g>
	<g>
		<path class="st1" d="M101.4,382l-46.7,46.7v-14.5L86.9,382H101.4 M103.8,381H86.5l-32.8,32.8v17.3L103.8,381L103.8,381z"/>
	</g>
	<g>
		<path class="st1" d="M52.8,326.2l-54,54l54,54l54-54L52.8,326.2L52.8,326.2z M86.5,379.4l-32.8-32.8v-17.3l50.1,50.1L86.5,379.4
			L86.5,379.4z M1.9,379.4L52,329.2v17.3l-32.8,32.8H1.9V379.4z M52,380.3h1.6v-31.5L85,380.2l-32.2,32.2l-32.2-32.2L52,348.8V380.3
			L52,380.3z M103.8,381l-50.1,50.1v-17.3L86.5,381H103.8L103.8,381z M52,431.1L1.9,381h17.3L52,413.8V431.1L52,431.1z"/>
	</g>
</g>
<g class="st0">
	<g>
		<path class="st1" d="M-52.8,326.2l-54,54l54,54l54-54L-52.8,326.2L-52.8,326.2z M-19.2,379.4L-52,346.5v-17.3l50.1,50.1
			L-19.2,379.4L-19.2,379.4z M-103.8,379.4l50.1-50.1v17.3l-32.8,32.8L-103.8,379.4L-103.8,379.4z M-53.6,380.3h1.6v-31.5l31.4,31.4
			l-32.2,32.2L-85,380.2l31.4-31.4V380.3L-53.6,380.3z M-1.9,381L-52,431.1v-17.3l32.8-32.8L-1.9,381L-1.9,381z M-53.6,431.1
			l-50.1-50.1h17.3l32.8,32.8L-53.6,431.1L-53.6,431.1z"/>
	</g>
</g>
<g class="st0">
	<g>
		<path class="st1" d="M71.6,305.9l32.3,32.3v14.5L57.2,306L71.6,305.9 M72,304.9H54.7l50.1,50.1v-17.3L72,304.9L72,304.9z"/>
	</g>
	<g>
		<path class="st1" d="M107.4,275.2l29,29L105.6,335l-30.8-30.8l29-29v29.1v1h1h1.6h1v-1L107.4,275.2 M106.4,272.8v31.5h-1.6v-31.5
			l-31.4,31.4l32.2,32.2l32.2-32.2L106.4,272.8L106.4,272.8z"/>
	</g>
	<g>
		<path class="st1" d="M105.6,250.1l-54,54l54,54l54-54L105.6,250.1L105.6,250.1z M139.3,303.3l-32.8-32.8v-17.3l50.1,50.1H139.3
			L139.3,303.3z M54.7,303.3l50.1-50.1v17.3L72,303.3H54.7L54.7,303.3z M104.8,304.3h1.6v-31.5l31.4,31.4l-32.2,32.2l-32.2-32.2
			l31.4-31.4L104.8,304.3L104.8,304.3z M156.6,304.9L106.5,355v-17.3l32.8-32.8L156.6,304.9L156.6,304.9z M104.8,355.1L54.7,305H72
			l32.8,32.8V355.1L104.8,355.1z"/>
	</g>
</g>
<g class="st0">
	<g>
		<path class="st1" d="M1.8,275.2l29,29L0,334.9l-30.8-30.8l29-29v29.1v1h1h1.6h1v-1L1.8,275.2 M0.8,272.8v31.5h-1.6v-31.5
			l-31.4,31.4L0,336.3l32.2-32.2L0.8,272.8L0.8,272.8z"/>
	</g>
	<g>
		<path class="st1" d="M48.5,305.9L1.8,352.7v-14.5l32.3-32.3L48.5,305.9 M50.9,304.9H33.6L0.8,337.8v17.3L50.9,304.9L50.9,304.9z"
			/>
	</g>
	<g>
		<path class="st1" d="M0,250.1l-54,54l54,54l54-54L0,250.1L0,250.1z M33.6,303.3L0.8,270.5v-17.3l50.1,50.1H33.6L33.6,303.3z
			 M-50.9,303.3l50.1-50.1v17.3l-32.8,32.8L-50.9,303.3L-50.9,303.3z M-0.8,304.3h1.6v-31.5l31.4,31.4L0,336.3l-32.2-32.2l31.4-31.4
			L-0.8,304.3L-0.8,304.3z M50.9,304.9L0.8,355.1v-17.3L33.6,305h17.3V304.9z M-0.8,355.1L-50.9,305h17.3l32.8,32.8L-0.8,355.1
			L-0.8,355.1z"/>
	</g>
</g>
</svg>
